<svg width="21" height="17" viewBox="0 0 21 17" fill="none" xmlns="http://www.w3.org/2000/svg">
<path d="M19.3936 14.7256H19.0794V5.48015C19.0794 5.22649 18.9801 4.98322 18.8033 4.80385C18.6265 4.62449 18.3867 4.52372 18.1367 4.52372H12.4804C12.2303 4.52372 11.9906 4.62449 11.8138 4.80385C11.637 4.98322 11.5377 5.22649 11.5377 5.48015V8.34944H9.65222V1.65443C9.65222 1.40077 9.5529 1.1575 9.3761 0.97813C9.19931 0.798765 8.95952 0.697998 8.7095 0.697998H3.05319C2.80317 0.697998 2.56338 0.798765 2.38659 0.97813C2.20979 1.1575 2.11047 1.40077 2.11047 1.65443V14.7256H1.79623C1.54621 14.7256 1.30643 14.8264 1.12963 15.0058C0.952837 15.1851 0.853516 15.4284 0.853516 15.6821C0.853516 15.9357 0.952837 16.179 1.12963 16.3584C1.30643 16.5377 1.54621 16.6385 1.79623 16.6385H19.3936C19.6437 16.6385 19.8834 16.5377 20.0602 16.3584C20.237 16.179 20.3364 15.9357 20.3364 15.6821C20.3364 15.4284 20.237 15.1851 20.0602 15.0058C19.8834 14.8264 19.6437 14.7256 19.3936 14.7256ZM13.4231 6.43658H17.194V14.7256H13.4231V6.43658ZM11.5377 10.2623V14.7256H9.65222V10.2623H11.5377ZM3.99591 2.61086H7.76678V14.7256H3.99591V2.61086ZM6.82406 4.52372V5.16134C6.82406 5.415 6.72474 5.65827 6.54795 5.83764C6.37115 6.017 6.13137 6.11777 5.88134 6.11777C5.63132 6.11777 5.39154 6.017 5.21474 5.83764C5.03795 5.65827 4.93863 5.415 4.93863 5.16134V4.52372C4.93863 4.27006 5.03795 4.02679 5.21474 3.84742C5.39154 3.66806 5.63132 3.56729 5.88134 3.56729C6.13137 3.56729 6.37115 3.66806 6.54795 3.84742C6.72474 4.02679 6.82406 4.27006 6.82406 4.52372ZM6.82406 8.34944V8.98706C6.82406 9.24072 6.72474 9.48399 6.54795 9.66336C6.37115 9.84272 6.13137 9.94349 5.88134 9.94349C5.63132 9.94349 5.39154 9.84272 5.21474 9.66336C5.03795 9.48399 4.93863 9.24072 4.93863 8.98706V8.34944C4.93863 8.09578 5.03795 7.85251 5.21474 7.67314C5.39154 7.49378 5.63132 7.39301 5.88134 7.39301C6.13137 7.39301 6.37115 7.49378 6.54795 7.67314C6.72474 7.85251 6.82406 8.09578 6.82406 8.34944ZM6.82406 12.1752V12.8128C6.82406 13.0664 6.72474 13.3097 6.54795 13.4891C6.37115 13.6684 6.13137 13.7692 5.88134 13.7692C5.63132 13.7692 5.39154 13.6684 5.21474 13.4891C5.03795 13.3097 4.93863 13.0664 4.93863 12.8128V12.1752C4.93863 11.9215 5.03795 11.6782 5.21474 11.4989C5.39154 11.3195 5.63132 11.2187 5.88134 11.2187C6.13137 11.2187 6.37115 11.3195 6.54795 11.4989C6.72474 11.6782 6.82406 11.9215 6.82406 12.1752ZM14.3658 12.8128V12.1752C14.3658 11.9215 14.4651 11.6782 14.6419 11.4989C14.8187 11.3195 15.0585 11.2187 15.3085 11.2187C15.5585 11.2187 15.7983 11.3195 15.9751 11.4989C16.1519 11.6782 16.2512 11.9215 16.2512 12.1752V12.8128C16.2512 13.0664 16.1519 13.3097 15.9751 13.4891C15.7983 13.6684 15.5585 13.7692 15.3085 13.7692C15.0585 13.7692 14.8187 13.6684 14.6419 13.4891C14.4651 13.3097 14.3658 13.0664 14.3658 12.8128ZM14.3658 8.98706V8.34944C14.3658 8.09578 14.4651 7.85251 14.6419 7.67314C14.8187 7.49378 15.0585 7.39301 15.3085 7.39301C15.5585 7.39301 15.7983 7.49378 15.9751 7.67314C16.1519 7.85251 16.2512 8.09578 16.2512 8.34944V8.98706C16.2512 9.24072 16.1519 9.48399 15.9751 9.66336C15.7983 9.84272 15.5585 9.94349 15.3085 9.94349C15.0585 9.94349 14.8187 9.84272 14.6419 9.66336C14.4651 9.48399 14.3658 9.24072 14.3658 8.98706Z" fill="#27C25C"/>
</svg>
