<svg width="17" height="16" viewBox="0 0 17 16" fill="none" xmlns="http://www.w3.org/2000/svg">
<path d="M6.54534 2.10051V12.1633C6.54534 12.2329 6.533 12.3019 6.5089 12.3671L9.96141 14.1226V3.83746L6.54534 2.10051ZM5.40665 2.05419L1.42124 3.85599V14.1689L5.4374 12.3532C5.4168 12.2921 5.40641 12.2279 5.40665 12.1633V2.05419ZM5.71865 0.646097C5.8021 0.603063 5.89469 0.581607 5.98824 0.583627C6.08178 0.585646 6.1734 0.61108 6.25497 0.657677L10.5456 2.83929L15.4237 0.634518C15.5104 0.595353 15.6053 0.578836 15.6999 0.586465C15.7944 0.594095 15.8856 0.62563 15.9652 0.678206C16.0447 0.730782 16.11 0.802732 16.1553 0.88752C16.2005 0.972308 16.2242 1.06725 16.2242 1.16371V12.7434C16.2242 12.8554 16.1923 12.9651 16.1322 13.059C16.0722 13.1529 15.9867 13.2271 15.886 13.2726L10.7619 15.5885C10.685 15.6233 10.6016 15.6402 10.5175 15.6382C10.4334 15.6362 10.3509 15.6153 10.2757 15.577L5.96119 13.3838L1.08419 15.5885C0.997502 15.6277 0.902565 15.6442 0.808004 15.6366C0.713444 15.629 0.622256 15.5974 0.542726 15.5449C0.463195 15.4923 0.397843 15.4203 0.352606 15.3355C0.307368 15.2508 0.283679 15.1558 0.283691 15.0594V3.47965C0.283677 3.36763 0.315621 3.25801 0.375649 3.16408C0.435677 3.07014 0.521211 2.99594 0.621882 2.95046L5.71865 0.646097ZM11.1001 3.85599V14.1689L15.0855 12.3671V2.05535L11.1001 3.85599Z" fill="#27C25C"/>
</svg>
