<svg width="168" height="168" viewBox="0 0 168 168" fill="none" xmlns="http://www.w3.org/2000/svg">
<path d="M140.58 97.7903L126.125 122.775C123.291 127.737 118.029 130.333 112.71 129.987H101.145V141.527L86.6893 115.562L101.145 89.5969V101.137H117.451L104.614 78.9223L129.652 64.4972L140.06 82.4997C143.067 86.9427 143.472 92.8858 140.58 97.7903ZM67.6655 26.4727H96.577C102.244 26.4727 107.159 29.7616 109.529 34.493L115.312 44.5329L125.315 38.7628L110.05 64.2087L80.2709 64.728L90.2743 58.958L82.1212 44.8214L69.3423 67.036L44.2471 52.6109L54.6553 34.6084C57.026 29.8193 61.941 26.4727 67.6655 26.4727ZM43.611 122.832L29.1553 97.848C26.3219 92.9435 26.7267 87.058 29.6757 82.6151L35.458 72.633L25.4546 66.8629L55.1757 67.3245L70.4988 92.8281L60.4954 87.0581L52.3423 101.137H78.0158V129.987H57.1995C54.4905 130.183 51.7809 129.616 49.3787 128.351C46.9765 127.086 44.9782 125.174 43.611 122.832Z" fill="url(#paint0_linear_38_627)"/>
<circle cx="84" cy="84" r="80" stroke="url(#paint1_linear_38_627)" stroke-width="8"/>
<defs>
<linearGradient id="paint0_linear_38_627" x1="84" y1="26.4727" x2="84" y2="141.527" gradientUnits="userSpaceOnUse">
<stop stop-color="#27C25C"/>
<stop offset="1" stop-color="#B0EC9A"/>
</linearGradient>
<linearGradient id="paint1_linear_38_627" x1="84" y1="0" x2="84" y2="168" gradientUnits="userSpaceOnUse">
<stop stop-color="#27C25C"/>
<stop offset="1" stop-color="#B0EC9A"/>
</linearGradient>
</defs>
</svg>
