<svg width="168" height="168" viewBox="0 0 168 168" fill="none" xmlns="http://www.w3.org/2000/svg">
<path d="M85.3894 58.0372C84.8919 57.2546 84.1113 56.6945 83.2105 56.4739C82.3098 56.2532 81.3587 56.3892 80.5558 56.8532C79.753 57.3173 79.1604 58.0737 78.9021 58.9643C78.6437 59.8549 78.7394 60.8109 79.1693 61.6326L88.1579 77.2369L66.3335 73.6415L85.3535 111.717C85.795 112.541 86.5399 113.16 87.4301 113.444C88.3204 113.728 89.2861 113.654 90.1228 113.238C90.9595 112.822 91.6013 112.096 91.9124 111.215C92.2235 110.334 92.1793 109.366 91.7893 108.517L79.0974 83.0616L102.036 86.8727L85.3894 58.0372Z" fill="url(#paint0_linear_38_626)"/>
<path d="M110.395 30.1001H102.773V28.59C102.773 27.0834 102.174 25.6384 101.109 24.5731C100.043 23.5077 98.5985 22.9092 97.0918 22.9092H72.4989C70.9923 22.9092 69.5473 23.5077 68.482 24.5731C67.4166 25.6384 66.8181 27.0834 66.8181 28.59V30.1001H59.1957C57.403 30.1001 55.6837 30.8122 54.4161 32.0799C53.1484 33.3475 52.4363 35.0668 52.4363 36.8595V131.204C52.4363 132.092 52.6111 132.971 52.9508 133.791C53.2905 134.611 53.7884 135.356 54.4161 135.984C55.0438 136.612 55.7889 137.109 56.609 137.449C57.4291 137.789 58.3081 137.964 59.1957 137.964H110.395C112.188 137.964 113.907 137.252 115.175 135.984C116.442 134.716 117.154 132.997 117.154 131.204V36.8595C117.154 35.0668 116.442 33.3475 115.175 32.0799C113.907 30.8122 112.188 30.1001 110.395 30.1001ZM109.964 130.773H59.6272V37.291H74.009V30.1001H95.5817V37.291H109.964V130.773Z" fill="url(#paint1_linear_38_626)"/>
<circle cx="84" cy="84" r="80" stroke="url(#paint2_linear_38_626)" stroke-width="8"/>
<defs>
<linearGradient id="paint0_linear_38_626" x1="84.1849" y1="56.3706" x2="84.1849" y2="113.614" gradientUnits="userSpaceOnUse">
<stop stop-color="#27C25C"/>
<stop offset="1" stop-color="#B0EC9A"/>
</linearGradient>
<linearGradient id="paint1_linear_38_626" x1="84.7954" y1="22.9092" x2="84.7954" y2="137.964" gradientUnits="userSpaceOnUse">
<stop stop-color="#27C25C"/>
<stop offset="1" stop-color="#B0EC9A"/>
</linearGradient>
<linearGradient id="paint2_linear_38_626" x1="84" y1="0" x2="84" y2="168" gradientUnits="userSpaceOnUse">
<stop stop-color="#27C25C"/>
<stop offset="1" stop-color="#B0EC9A"/>
</linearGradient>
</defs>
</svg>
