<svg width="64" height="64" viewBox="0 0 64 64" fill="none" xmlns="http://www.w3.org/2000/svg">
<path fill-rule="evenodd" clip-rule="evenodd" d="M34.8269 42.8268C34.0769 43.5758 33.0602 43.9966 32.0002 43.9966C30.9402 43.9966 29.9236 43.5758 29.1736 42.8268L14.0856 27.7441C13.3355 26.9937 12.9143 25.9761 12.9146 24.9152C12.9148 23.8542 13.3365 22.8368 14.0869 22.0868C14.8373 21.3367 15.8549 20.9155 16.9158 20.9158C17.9768 20.916 18.9942 21.3377 19.7442 22.0881L32.0002 34.3441L44.2562 22.0881C45.0103 21.3591 46.0205 20.9555 47.0693 20.9641C48.1181 20.9727 49.1216 21.3929 49.8635 22.1342C50.6055 22.8755 51.0267 23.8785 51.0363 24.9273C51.0459 25.9761 50.6432 26.9867 49.9149 27.7414L34.8296 42.8294L34.8269 42.8268Z" fill="#1F1F1F"/>
</svg>
