<svg width="64" height="60" viewBox="0 0 64 60" fill="none" xmlns="http://www.w3.org/2000/svg">
<path fill-rule="evenodd" clip-rule="evenodd" d="M29.1731 17.1732C29.9231 16.4242 30.9398 16.0034 31.9998 16.0034C33.0598 16.0034 34.0764 16.4242 34.8264 17.1732L49.9144 32.2559C50.6645 33.0063 51.0857 34.0239 51.0854 35.0848C51.0852 36.1458 50.6635 37.1632 49.9131 37.9132C49.1627 38.6633 48.1451 39.0845 47.0842 39.0842C46.0232 39.084 45.0058 38.6623 44.2558 37.9119L31.9998 25.6559L19.7438 37.9119C18.9897 38.6409 17.9795 39.0445 16.9307 39.0359C15.8819 39.0273 14.8784 38.6071 14.1365 37.8658C13.3945 37.1245 12.9733 36.1215 12.9637 35.0727C12.9541 34.0239 13.3568 33.0133 14.0851 32.2586L29.1704 17.1706L29.1731 17.1732Z" fill="#1F1F1F"/>
</svg>
