<svg width="13" height="16" viewBox="0 0 13 16" fill="none" xmlns="http://www.w3.org/2000/svg">
<path d="M6.5 7.6C5.88432 7.6 5.29385 7.38929 4.8585 7.01421C4.42315 6.63914 4.17857 6.13043 4.17857 5.6C4.17857 5.06957 4.42315 4.56086 4.8585 4.18579C5.29385 3.81071 5.88432 3.6 6.5 3.6C7.11568 3.6 7.70615 3.81071 8.1415 4.18579C8.57685 4.56086 8.82143 5.06957 8.82143 5.6C8.82143 5.86264 8.76138 6.12272 8.64472 6.36537C8.52806 6.60802 8.35706 6.8285 8.1415 7.01421C7.92593 7.19993 7.67002 7.34725 7.38837 7.44776C7.10672 7.54827 6.80485 7.6 6.5 7.6ZM6.5 0C4.77609 0 3.12279 0.589998 1.90381 1.6402C0.684819 2.69041 0 4.11479 0 5.6C0 9.8 6.5 16 6.5 16C6.5 16 13 9.8 13 5.6C13 4.11479 12.3152 2.69041 11.0962 1.6402C9.87721 0.589998 8.22391 0 6.5 0Z" fill="#27C25C"/>
</svg>
