<svg width="13" height="12" viewBox="0 0 13 12" fill="none" xmlns="http://www.w3.org/2000/svg">
<path d="M6.5 5.7C5.88432 5.7 5.29385 5.54196 4.8585 5.26066C4.42315 4.97936 4.17857 4.59782 4.17857 4.2C4.17857 3.80218 4.42315 3.42064 4.8585 3.13934C5.29385 2.85804 5.88432 2.7 6.5 2.7C7.11568 2.7 7.70615 2.85804 8.1415 3.13934C8.57685 3.42064 8.82143 3.80218 8.82143 4.2C8.82143 4.39698 8.76138 4.59204 8.64472 4.77403C8.52806 4.95601 8.35706 5.12137 8.1415 5.26066C7.92593 5.39995 7.67002 5.51044 7.38837 5.58582C7.10672 5.6612 6.80485 5.7 6.5 5.7ZM6.5 0C4.77609 0 3.12279 0.442499 1.90381 1.23015C0.684819 2.0178 0 3.08609 0 4.2C0 7.35 6.5 12 6.5 12C6.5 12 13 7.35 13 4.2C13 3.08609 12.3152 2.0178 11.0962 1.23015C9.87721 0.442499 8.22391 0 6.5 0Z" fill="#27C25C"/>
</svg>
