<svg width="19" height="21" viewBox="0 0 19 21" fill="none" xmlns="http://www.w3.org/2000/svg">
<path d="M9.5 16C10.0967 16 10.669 15.7893 11.091 15.4142C11.5129 15.0391 11.75 14.5304 11.75 14C11.75 13.4696 11.5129 12.9609 11.091 12.5858C10.669 12.2107 10.0967 12 9.5 12C8.90326 12 8.33097 12.2107 7.90901 12.5858C7.48705 12.9609 7.25 13.4696 7.25 14C7.25 14.5304 7.48705 15.0391 7.90901 15.4142C8.33097 15.7893 8.90326 16 9.5 16ZM16.25 7C16.8467 7 17.419 7.21071 17.841 7.58579C18.2629 7.96086 18.5 8.46957 18.5 9V19C18.5 19.5304 18.2629 20.0391 17.841 20.4142C17.419 20.7893 16.8467 21 16.25 21H2.75C2.15326 21 1.58097 20.7893 1.15901 20.4142C0.737053 20.0391 0.5 19.5304 0.5 19V9C0.5 8.46957 0.737053 7.96086 1.15901 7.58579C1.58097 7.21071 2.15326 7 2.75 7H3.875V5C3.875 3.67392 4.46763 2.40215 5.52252 1.46447C6.57742 0.526784 8.00816 0 9.5 0C10.2387 0 10.9701 0.129329 11.6526 0.380602C12.3351 0.631876 12.9551 1.00017 13.4775 1.46447C13.9998 1.92876 14.4141 2.47995 14.6968 3.08658C14.9795 3.69321 15.125 4.34339 15.125 5V7H16.25ZM9.5 2C8.60489 2 7.74645 2.31607 7.11351 2.87868C6.48058 3.44129 6.125 4.20435 6.125 5V7H12.875V5C12.875 4.20435 12.5194 3.44129 11.8865 2.87868C11.2536 2.31607 10.3951 2 9.5 2Z" fill="#27C25C"/>
</svg>
