<svg width="19" height="19" viewBox="0 0 19 19" fill="none" xmlns="http://www.w3.org/2000/svg">
<path d="M18.0645 14.0276C17.9062 15.2287 17.3154 16.3311 16.4024 17.1291C15.4894 17.927 14.3166 18.3659 13.1031 18.3637C6.05349 18.3637 0.317879 12.6378 0.317879 5.59998C0.315704 4.38857 0.755319 3.21779 1.55462 2.3063C2.35391 1.39482 3.45823 0.804978 4.66132 0.646932C4.96555 0.609847 5.27363 0.671982 5.53958 0.824063C5.80553 0.976144 6.01508 1.21001 6.13695 1.49076L8.01212 5.67V5.68064C8.10543 5.89554 8.14396 6.13017 8.12428 6.36357C8.10461 6.59696 8.02733 6.82186 7.89936 7.01818C7.88338 7.04211 7.86651 7.06427 7.84876 7.08643L6.00022 9.27399C6.66523 10.6231 8.07871 12.0217 9.4478 12.6874L11.6089 10.8517C11.6301 10.8339 11.6523 10.8173 11.6755 10.8021C11.8719 10.6713 12.098 10.5914 12.3332 10.5697C12.5683 10.5481 12.8052 10.5853 13.0223 10.678L13.0339 10.6833L17.2166 12.5545C17.4983 12.6757 17.7332 12.8847 17.886 13.1502C18.0389 13.4158 18.1015 13.7236 18.0645 14.0276Z" fill="#27C25C"/>
</svg>
