<svg width="210" height="90" viewBox="0 0 210 90" fill="none" xmlns="http://www.w3.org/2000/svg">
<g clip-path="url(#clip0_111_2329)">
<mask id="mask0_111_2329" style="mask-type:luminance" maskUnits="userSpaceOnUse" x="0" y="-108" width="210" height="306">
<path fill-rule="evenodd" clip-rule="evenodd" d="M0 -107.687H210V197.821H0V-107.687Z" fill="white"/>
</mask>
<g mask="url(#mask0_111_2329)">
<path d="M85.6819 8.19714H88.7047C88.743 8.19714 88.7792 8.2114 88.8129 8.24019C88.8463 8.26898 88.8633 8.30261 88.8633 8.34082V8.64243C88.8633 8.68091 88.8463 8.71427 88.8129 8.74306C88.7792 8.77158 88.7427 8.78611 88.7047 8.78611H87.4957V18.9678H88.7047C88.743 18.9678 88.7792 18.9821 88.8129 19.0109C88.8463 19.0391 88.8633 19.0728 88.8633 19.1115V19.4131C88.8633 19.4516 88.8463 19.4849 88.8129 19.5137C88.7792 19.5423 88.7427 19.5565 88.7047 19.5565H85.6819C85.5859 19.5565 85.5379 19.5086 85.5379 19.4134V19.1112C85.5379 19.0157 85.5856 18.9675 85.6819 18.9675H86.9055V8.78584H85.6819C85.5859 8.78584 85.5379 8.73768 85.5379 8.64217V8.34055C85.5382 8.24504 85.5859 8.19714 85.6819 8.19714Z" fill="#313846" stroke="#313846" stroke-width="0.922971" stroke-miterlimit="10"/>
</g>
<mask id="mask1_111_2329" style="mask-type:luminance" maskUnits="userSpaceOnUse" x="0" y="-108" width="210" height="306">
<path fill-rule="evenodd" clip-rule="evenodd" d="M0 -107.687H210V197.821H0V-107.687Z" fill="white"/>
</mask>
<g mask="url(#mask1_111_2329)">
<path d="M91.2269 8.16833C91.697 8.16833 92.0908 8.31443 92.4071 8.60636C92.724 8.89856 92.9161 9.18322 92.9832 9.46089L95.6465 18.0917C95.7808 18.4361 95.9674 18.6708 96.2077 18.7951C96.2363 18.8144 96.2625 18.8236 96.287 18.8236C96.3108 18.8236 96.3323 18.8166 96.3515 18.8021C96.3704 18.7875 96.3803 18.7663 96.3803 18.7375V8.32627C96.3803 8.2878 96.3946 8.25228 96.423 8.21865C96.4516 8.18502 96.4853 8.16834 96.5241 8.16834H96.8262C96.8645 8.16834 96.8982 8.18529 96.927 8.21865C96.9553 8.25228 96.9699 8.28807 96.9699 8.32627V19.398C96.9699 19.4268 96.9553 19.4583 96.927 19.4917C96.8982 19.5253 96.8645 19.542 96.8262 19.542C96.423 19.542 96.0581 19.4198 95.732 19.1758C95.4054 18.932 95.185 18.6229 95.0696 18.25L92.4069 9.61883C92.3303 9.40842 92.2461 9.25506 92.155 9.15928C92.0638 9.06376 91.9317 8.97255 91.759 8.88645C91.7013 8.85766 91.6727 8.87192 91.6727 8.92923V19.3983C91.6727 19.4941 91.6245 19.542 91.529 19.542H91.2264C91.1307 19.542 91.0826 19.4941 91.0826 19.3983V8.32627C91.0826 8.29775 91.0969 8.26412 91.1258 8.22564C91.1549 8.18771 91.1884 8.16833 91.2269 8.16833Z" fill="#313846" stroke="#313846" stroke-width="0.922971" stroke-miterlimit="10"/>
</g>
<mask id="mask2_111_2329" style="mask-type:luminance" maskUnits="userSpaceOnUse" x="0" y="-108" width="210" height="306">
<path fill-rule="evenodd" clip-rule="evenodd" d="M0 -107.687H210V197.821H0V-107.687Z" fill="white"/>
</mask>
<g mask="url(#mask2_111_2329)">
<path d="M103.35 18.9533C103.917 18.9533 104.396 18.762 104.79 18.3786C105.183 17.9957 105.38 17.5316 105.38 16.9856C105.38 16.3251 105.087 15.7843 104.502 15.363L100.327 12.9358C99.9622 12.7254 99.6674 12.4213 99.442 12.0239C99.2165 11.6265 99.1038 11.1982 99.1038 10.7389C99.1038 10.0305 99.3535 9.42484 99.8522 8.92224C100.351 8.41964 100.956 8.16833 101.666 8.16833H102.919C103.696 8.2165 104.351 8.52026 104.883 9.08017C105.416 9.64035 105.683 10.313 105.683 11.0978C105.683 11.1839 105.654 11.2509 105.596 11.2988C105.539 11.347 105.469 11.3707 105.388 11.3707C105.306 11.3707 105.236 11.347 105.18 11.2988C105.122 11.2509 105.093 11.1839 105.093 11.0978C105.093 10.447 104.865 9.89381 104.409 9.4391C103.954 8.98466 103.404 8.75704 102.761 8.75704H102.157L101.668 8.77156C101.111 8.77156 100.636 8.9634 100.243 9.34627C99.8495 9.72941 99.6526 10.1933 99.6526 10.7395C99.6526 11.4097 99.9406 11.9505 100.516 12.3621L104.461 14.6454L104.777 14.8466C104.901 14.9236 105.038 15.0315 105.187 15.1698C105.336 15.3091 105.496 15.5481 105.669 15.8879C105.842 16.228 105.928 16.5893 105.928 16.9722C105.928 17.6806 105.674 18.2887 105.165 18.7959C104.656 19.3036 104.047 19.5568 103.338 19.5568V19.5425H102.127C101.311 19.5425 100.617 19.2576 100.047 18.688C99.4757 18.1184 99.1901 17.4266 99.1901 16.613C99.1901 16.5175 99.2165 16.4456 99.2691 16.3975C99.3217 16.3493 99.3867 16.3254 99.4635 16.3254C99.5498 16.3254 99.6245 16.352 99.6869 16.4042C99.7489 16.4569 99.7804 16.5264 99.7804 16.6125C99.7804 17.2539 100.009 17.8044 100.464 18.2639C100.919 18.7235 101.474 18.9535 102.127 18.9535L103.35 18.9533Z" fill="#313846" stroke="#313846" stroke-width="0.922971" stroke-miterlimit="10"/>
</g>
<mask id="mask3_111_2329" style="mask-type:luminance" maskUnits="userSpaceOnUse" x="0" y="-108" width="210" height="306">
<path fill-rule="evenodd" clip-rule="evenodd" d="M0 -107.687H210V197.821H0V-107.687Z" fill="white"/>
</mask>
<g mask="url(#mask3_111_2329)">
<path d="M108.118 8.13959H113.675C113.713 8.13959 113.748 8.15412 113.782 8.18264C113.816 8.21089 113.833 8.24479 113.833 8.28326V8.58488C113.833 8.62335 113.816 8.65672 113.782 8.68551C113.748 8.71376 113.712 8.72856 113.675 8.72856H111.515C111.429 8.72856 111.354 8.76461 111.292 8.83591C111.23 8.90775 111.198 8.98201 111.198 9.05842V19.3695C111.198 19.4078 111.184 19.4435 111.155 19.4769C111.127 19.5105 111.093 19.5275 111.055 19.5275H110.752C110.713 19.5275 110.68 19.5105 110.651 19.4769C110.623 19.4433 110.608 19.4075 110.608 19.3695V9.05869C110.608 8.98228 110.577 8.90775 110.515 8.83618C110.452 8.76434 110.378 8.72883 110.292 8.72883H108.118C108.022 8.72883 107.974 8.68066 107.974 8.58515V8.28353C107.974 8.18775 108.022 8.13959 108.118 8.13959Z" fill="#313846" stroke="#313846" stroke-width="0.922971" stroke-miterlimit="10"/>
</g>
<mask id="mask4_111_2329" style="mask-type:luminance" maskUnits="userSpaceOnUse" x="0" y="-108" width="210" height="306">
<path fill-rule="evenodd" clip-rule="evenodd" d="M0 -107.687H210V197.821H0V-107.687Z" fill="white"/>
</mask>
<g mask="url(#mask4_111_2329)">
<path d="M116.11 8.19714H119.132C119.171 8.19714 119.207 8.2114 119.24 8.24019C119.274 8.26898 119.291 8.30261 119.291 8.34082V8.64243C119.291 8.68091 119.274 8.71427 119.24 8.74306C119.207 8.77158 119.171 8.78611 119.132 8.78611H117.924V18.9678H119.132C119.171 18.9678 119.207 18.9821 119.24 19.0109C119.274 19.0391 119.291 19.0728 119.291 19.1115V19.4131C119.291 19.4516 119.274 19.4849 119.24 19.5137C119.207 19.5423 119.171 19.5565 119.132 19.5565H116.11C116.014 19.5565 115.966 19.5086 115.966 19.4134V19.1112C115.966 19.0157 116.014 18.9675 116.11 18.9675H117.333V8.78584H116.11C116.014 8.78584 115.966 8.73768 115.966 8.64217V8.34055C115.966 8.24504 116.014 8.19714 116.11 8.19714Z" fill="#313846" stroke="#313846" stroke-width="0.922971" stroke-miterlimit="10"/>
</g>
<mask id="mask5_111_2329" style="mask-type:luminance" maskUnits="userSpaceOnUse" x="0" y="-108" width="210" height="306">
<path fill-rule="evenodd" clip-rule="evenodd" d="M0 -107.687H210V197.821H0V-107.687Z" fill="white"/>
</mask>
<g mask="url(#mask5_111_2329)">
<path d="M121.568 8.13959H127.125C127.164 8.13959 127.199 8.15412 127.233 8.18264C127.266 8.21089 127.284 8.24479 127.284 8.28326V8.58488C127.284 8.62335 127.267 8.65672 127.233 8.68551C127.199 8.71376 127.163 8.72856 127.125 8.72856H124.966C124.879 8.72856 124.805 8.76461 124.743 8.83591C124.68 8.90775 124.649 8.98201 124.649 9.05842V19.3695C124.649 19.4078 124.635 19.4435 124.606 19.4769C124.577 19.5105 124.544 19.5275 124.505 19.5275H124.203C124.164 19.5275 124.131 19.5105 124.102 19.4769C124.074 19.4433 124.059 19.4075 124.059 19.3695V9.05869C124.059 8.98228 124.028 8.90775 123.965 8.83618C123.903 8.76434 123.828 8.72883 123.742 8.72883H121.568C121.473 8.72883 121.425 8.68066 121.425 8.58515V8.28353C121.424 8.18775 121.472 8.13959 121.568 8.13959Z" fill="#313846" stroke="#313846" stroke-width="0.922971" stroke-miterlimit="10"/>
</g>
<mask id="mask6_111_2329" style="mask-type:luminance" maskUnits="userSpaceOnUse" x="0" y="-108" width="210" height="306">
<path fill-rule="evenodd" clip-rule="evenodd" d="M0 -107.687H210V197.821H0V-107.687Z" fill="white"/>
</mask>
<g mask="url(#mask6_111_2329)">
<path d="M137.305 14.0565V8.34058C137.305 8.30237 137.322 8.26874 137.355 8.23995C137.389 8.21116 137.425 8.1969 137.463 8.1969H137.751C137.847 8.1969 137.895 8.24479 137.895 8.34031V13.898C137.837 15.4776 137.41 16.8156 136.614 17.9118C135.817 19.0077 134.848 19.5557 133.706 19.5557C132.545 19.5557 131.554 19.0028 130.734 17.897C129.913 16.7917 129.503 15.4585 129.503 13.898V8.34058C129.503 8.30237 129.52 8.26874 129.554 8.23995C129.587 8.21116 129.623 8.1969 129.661 8.1969H129.949C130.045 8.1969 130.093 8.24479 130.093 8.34031V13.453L130.107 14.0562C130.136 15.4254 130.501 16.5859 131.202 17.5383C131.902 18.4911 132.737 18.9676 133.706 18.9676C134.676 18.9676 135.51 18.4911 136.211 17.5383C136.911 16.5861 137.276 15.4254 137.305 14.0565Z" fill="#313846" stroke="#313846" stroke-width="0.922971" stroke-miterlimit="10"/>
</g>
<mask id="mask7_111_2329" style="mask-type:luminance" maskUnits="userSpaceOnUse" x="0" y="-108" width="210" height="306">
<path fill-rule="evenodd" clip-rule="evenodd" d="M0 -107.687H210V197.821H0V-107.687Z" fill="white"/>
</mask>
<g mask="url(#mask7_111_2329)">
<path d="M140.259 8.13959H145.815C145.854 8.13959 145.889 8.15412 145.923 8.18264C145.957 8.21089 145.974 8.24479 145.974 8.28326V8.58488C145.974 8.62335 145.957 8.65672 145.923 8.68551C145.889 8.71376 145.853 8.72856 145.815 8.72856H143.656C143.57 8.72856 143.495 8.76461 143.433 8.83591C143.371 8.90775 143.339 8.98201 143.339 9.05842V19.3695C143.339 19.4078 143.325 19.4435 143.296 19.4769C143.268 19.5105 143.234 19.5275 143.196 19.5275H142.893C142.855 19.5275 142.821 19.5105 142.793 19.4769C142.764 19.4433 142.749 19.4075 142.749 19.3695V9.05869C142.749 8.98228 142.718 8.90775 142.656 8.83618C142.593 8.76434 142.519 8.72883 142.433 8.72883H140.259C140.163 8.72883 140.115 8.68066 140.115 8.58515V8.28353C140.115 8.18775 140.163 8.13959 140.259 8.13959Z" fill="#313846" stroke="#313846" stroke-width="0.922971" stroke-miterlimit="10"/>
</g>
<mask id="mask8_111_2329" style="mask-type:luminance" maskUnits="userSpaceOnUse" x="0" y="-108" width="210" height="306">
<path fill-rule="evenodd" clip-rule="evenodd" d="M0 -107.687H210V197.821H0V-107.687Z" fill="white"/>
</mask>
<g mask="url(#mask8_111_2329)">
<path d="M155.995 14.0565V8.34058C155.995 8.30237 156.012 8.26874 156.046 8.23995C156.079 8.21116 156.115 8.1969 156.154 8.1969H156.441C156.537 8.1969 156.585 8.24479 156.585 8.34031V13.898C156.528 15.4776 156.101 16.8156 155.304 17.9118C154.508 19.0077 153.538 19.5557 152.397 19.5557C151.235 19.5557 150.245 19.0028 149.424 17.897C148.604 16.7917 148.194 15.4585 148.194 13.898V8.34058C148.194 8.30237 148.211 8.26874 148.244 8.23995C148.278 8.21116 148.314 8.1969 148.352 8.1969H148.64C148.735 8.1969 148.783 8.24479 148.783 8.34031V13.453L148.798 14.0562C148.827 15.4254 149.191 16.5859 149.892 17.5383C150.593 18.4911 151.427 18.9676 152.397 18.9676C153.366 18.9676 154.201 18.4911 154.902 17.5383C155.602 16.5861 155.967 15.4254 155.995 14.0565Z" fill="#313846" stroke="#313846" stroke-width="0.922971" stroke-miterlimit="10"/>
</g>
<mask id="mask9_111_2329" style="mask-type:luminance" maskUnits="userSpaceOnUse" x="0" y="-108" width="210" height="306">
<path fill-rule="evenodd" clip-rule="evenodd" d="M0 -107.687H210V197.821H0V-107.687Z" fill="white"/>
</mask>
<g mask="url(#mask9_111_2329)">
<path d="M159.05 8.18262H159.338C159.356 8.18262 159.378 8.19472 159.402 8.21867C159.426 8.24262 159.448 8.26925 159.467 8.29751L159.481 8.32603V17.8041C159.501 18.1203 159.628 18.3883 159.863 18.6084C160.098 18.8284 160.374 18.9436 160.69 18.953H164.577C164.615 18.953 164.651 18.9676 164.685 18.9961C164.718 19.0246 164.735 19.0585 164.735 19.0964V19.398C164.735 19.4174 164.726 19.4368 164.707 19.4554C164.687 19.4747 164.664 19.4917 164.634 19.5059C164.606 19.5202 164.586 19.5326 164.577 19.542C164.567 19.5514 164.418 19.5562 164.131 19.5562C163.958 19.5562 163.649 19.5541 163.202 19.5495C162.756 19.5444 162.447 19.5425 162.274 19.5425H160.734C160.254 19.5425 159.834 19.3773 159.474 19.0469C159.114 18.7162 158.92 18.3124 158.891 17.8335V8.32629C158.891 8.28782 158.908 8.25419 158.942 8.22567C158.976 8.19715 159.011 8.18262 159.05 8.18262Z" fill="#313846" stroke="#313846" stroke-width="0.922971" stroke-miterlimit="10"/>
</g>
<mask id="mask10_111_2329" style="mask-type:luminance" maskUnits="userSpaceOnUse" x="0" y="-108" width="210" height="306">
<path fill-rule="evenodd" clip-rule="evenodd" d="M0 -107.687H210V197.821H0V-107.687Z" fill="white"/>
</mask>
<g mask="url(#mask10_111_2329)">
<path d="M87.4525 25.4012H91.3248C91.4203 25.4012 91.4689 25.4491 91.4689 25.5449V25.8463C91.4689 25.9421 91.4206 25.9899 91.3248 25.9899H87.4525C87.1073 25.9899 86.8144 26.1121 86.5744 26.3561C86.3343 26.6002 86.2146 26.8945 86.2146 27.2392V30.7289C86.2146 30.7673 86.2362 30.8077 86.2793 30.8508C86.3222 30.8941 86.3678 30.9153 86.416 30.9153H89.5251C89.6206 30.9153 89.6692 30.9635 89.6692 31.0587V31.3603C89.6692 31.4561 89.6209 31.504 89.5251 31.504H86.416C86.2815 31.5425 86.2146 31.6141 86.2146 31.7193V34.9934C86.2337 35.3287 86.3632 35.6088 86.6029 35.8337C86.8427 36.0586 87.1305 36.1711 87.4668 36.1711H91.3248C91.3631 36.1711 91.399 36.1856 91.4327 36.2142C91.4662 36.243 91.4832 36.2766 91.4832 36.3148V36.6164C91.4832 36.6551 91.4662 36.6885 91.4327 36.717C91.399 36.7458 91.3629 36.7601 91.3248 36.7601H87.4525C86.9533 36.7601 86.5288 36.5903 86.1784 36.2502C85.8278 35.9101 85.6433 35.496 85.6242 35.008V27.2395C85.6242 26.732 85.8041 26.2988 86.1641 25.9399C86.5239 25.5807 86.9533 25.4012 87.4525 25.4012Z" fill="#313846" stroke="#313846" stroke-width="0.922971" stroke-miterlimit="10"/>
</g>
<mask id="mask11_111_2329" style="mask-type:luminance" maskUnits="userSpaceOnUse" x="0" y="-108" width="210" height="306">
<path fill-rule="evenodd" clip-rule="evenodd" d="M0 -107.687H210V197.821H0V-107.687Z" fill="white"/>
</mask>
<g mask="url(#mask11_111_2329)">
<path d="M95.4299 25.4443H96.625C97.7474 25.5019 98.7024 26.0809 99.4894 27.1819C100.276 28.2829 100.67 29.5946 100.67 31.1169C100.67 32.6774 100.264 34.0079 99.453 35.1092C98.642 36.2104 97.6609 36.7703 96.5093 36.7894H95.4445C94.9647 36.713 94.5566 36.5164 94.2211 36.2008C93.8848 35.8846 93.7119 35.4972 93.7028 35.0373L93.7171 27.2683H93.7028C93.7028 26.7805 93.8678 26.3637 94.1993 26.0188C94.5305 25.6741 94.9407 25.4828 95.4299 25.4443ZM95.5451 26.0333C95.1999 26.0333 94.9048 26.153 94.6599 26.3922C94.415 26.6317 94.2929 26.9239 94.2929 27.2683V35.0373C94.3023 35.3535 94.4223 35.6215 94.6526 35.8416C94.883 36.0619 95.1562 36.1816 95.4733 36.2005H96.4669C97.4645 36.2005 98.3162 35.7027 99.022 34.7069C99.7278 33.7112 100.08 32.5147 100.08 31.1166C100.08 29.7186 99.7273 28.5218 99.022 27.5263C98.3168 26.5311 97.4651 26.0328 96.4669 26.0328L95.5451 26.0333Z" fill="#313846" stroke="#313846" stroke-width="0.922971" stroke-miterlimit="10"/>
</g>
<mask id="mask12_111_2329" style="mask-type:luminance" maskUnits="userSpaceOnUse" x="0" y="-108" width="210" height="306">
<path fill-rule="evenodd" clip-rule="evenodd" d="M0 -107.687H210V197.821H0V-107.687Z" fill="white"/>
</mask>
<g mask="url(#mask12_111_2329)">
<path d="M110.605 31.2891V25.5735C110.605 25.5353 110.622 25.5016 110.656 25.4729C110.689 25.4443 110.725 25.4298 110.764 25.4298H111.051C111.147 25.4298 111.195 25.4782 111.195 25.5735V31.1312C111.137 32.7108 110.71 34.0488 109.914 35.145C109.117 36.2411 108.148 36.7892 107.006 36.7892C105.845 36.7892 104.854 36.236 104.034 35.1304C103.213 34.0249 102.803 32.6917 102.803 31.1312V25.5735C102.803 25.5353 102.82 25.5016 102.854 25.4729C102.887 25.4443 102.923 25.4298 102.961 25.4298H103.249C103.345 25.4298 103.393 25.4782 103.393 25.5735V30.6859L103.408 31.2891C103.436 32.6583 103.801 33.819 104.502 34.7715C105.202 35.7242 106.037 36.2005 107.006 36.2005C107.976 36.2005 108.811 35.7242 109.511 34.7715C110.212 33.819 110.576 32.6583 110.605 31.2891Z" fill="#313846" stroke="#313846" stroke-width="0.922971" stroke-miterlimit="10"/>
</g>
<mask id="mask13_111_2329" style="mask-type:luminance" maskUnits="userSpaceOnUse" x="0" y="-108" width="210" height="306">
<path fill-rule="evenodd" clip-rule="evenodd" d="M0 -107.687H210V197.821H0V-107.687Z" fill="white"/>
</mask>
<g mask="url(#mask13_111_2329)">
<path d="M120.08 27.498C119.36 26.5025 118.511 26.0045 117.532 26.0045C116.534 26.0045 115.683 26.5025 114.977 27.498C114.272 28.4938 113.919 29.6903 113.919 31.0881C113.919 32.4861 114.274 33.685 114.984 34.6854C115.694 35.686 116.543 36.1862 117.532 36.1862C118.529 36.1862 119.379 35.6882 120.08 34.6927C120.147 34.5971 120.228 34.549 120.324 34.549C120.401 34.549 120.465 34.5753 120.519 34.6278C120.571 34.6803 120.598 34.75 120.598 34.8358C120.598 34.9219 120.564 35.0128 120.497 35.1089C119.691 36.2196 118.703 36.7744 117.532 36.7744C116.37 36.7744 115.38 36.2193 114.559 35.1089C113.739 33.9985 113.329 32.6583 113.329 31.0878C113.329 29.5275 113.739 28.1919 114.559 27.0813C115.38 25.9709 116.371 25.4155 117.532 25.4155C118.703 25.4155 119.691 25.9709 120.497 27.0813C120.555 27.1577 120.583 27.2392 120.583 27.3253C120.583 27.4114 120.555 27.483 120.497 27.5408C120.439 27.5981 120.377 27.6266 120.31 27.6266C120.214 27.6272 120.138 27.5841 120.08 27.498Z" fill="#313846" stroke="#313846" stroke-width="0.922971" stroke-miterlimit="10"/>
</g>
<mask id="mask14_111_2329" style="mask-type:luminance" maskUnits="userSpaceOnUse" x="0" y="-108" width="210" height="306">
<path fill-rule="evenodd" clip-rule="evenodd" d="M0 -107.687H210V197.821H0V-107.687Z" fill="white"/>
</mask>
<g mask="url(#mask14_111_2329)">
<path d="M127.007 25.4298C128.168 25.4298 129.156 25.983 129.972 27.0886C130.787 28.1941 131.196 29.5276 131.196 31.0878V36.6455C131.196 36.741 131.147 36.7892 131.052 36.7892H130.749C130.654 36.7892 130.605 36.741 130.605 36.6455V31.5331H123.394V36.6455C123.394 36.741 123.345 36.7892 123.25 36.7892H122.962C122.924 36.7892 122.888 36.7747 122.855 36.7461C122.821 36.7173 122.804 36.684 122.804 36.6455V31.0878C122.862 29.5082 123.291 28.1704 124.092 27.074C124.893 25.9782 125.864 25.4298 127.007 25.4298ZM129.512 27.4547C128.811 26.4974 127.976 26.0188 127.007 26.0188C126.038 26.0188 125.203 26.4977 124.502 27.4547C123.801 28.4123 123.437 29.5755 123.408 30.9444H130.606C130.577 29.5755 130.212 28.4123 129.512 27.4547Z" fill="#313846" stroke="#313846" stroke-width="0.922971" stroke-miterlimit="10"/>
</g>
<mask id="mask15_111_2329" style="mask-type:luminance" maskUnits="userSpaceOnUse" x="0" y="-108" width="210" height="306">
<path fill-rule="evenodd" clip-rule="evenodd" d="M0 -107.687H210V197.821H0V-107.687Z" fill="white"/>
</mask>
<g mask="url(#mask15_111_2329)">
<path d="M133.559 25.3725H139.116C139.154 25.3725 139.19 25.387 139.224 25.4155C139.257 25.4441 139.274 25.478 139.274 25.5162V25.8178C139.274 25.8563 139.257 25.8896 139.224 25.9184C139.19 25.9467 139.154 25.9615 139.116 25.9615H136.957C136.871 25.9615 136.796 25.9973 136.734 26.0688C136.672 26.1409 136.64 26.2149 136.64 26.2913V36.6025C136.64 36.6407 136.625 36.6764 136.597 36.7101C136.568 36.7437 136.535 36.7604 136.496 36.7604H136.194C136.155 36.7604 136.122 36.7437 136.093 36.7101C136.065 36.6764 136.05 36.6404 136.05 36.6025V26.2913C136.05 26.2149 136.019 26.1404 135.957 26.0688C135.894 25.997 135.819 25.9615 135.734 25.9615H133.559C133.464 25.9615 133.415 25.9133 133.415 25.8178V25.5162C133.415 25.4207 133.463 25.3725 133.559 25.3725Z" fill="#313846" stroke="#313846" stroke-width="0.922971" stroke-miterlimit="10"/>
</g>
<mask id="mask16_111_2329" style="mask-type:luminance" maskUnits="userSpaceOnUse" x="0" y="-108" width="210" height="306">
<path fill-rule="evenodd" clip-rule="evenodd" d="M0 -107.687H210V197.821H0V-107.687Z" fill="white"/>
</mask>
<g mask="url(#mask16_111_2329)">
<path d="M141.551 25.4298H144.574C144.613 25.4298 144.648 25.4443 144.682 25.4729C144.716 25.5016 144.733 25.5353 144.733 25.5735V25.8751C144.733 25.9136 144.716 25.9469 144.682 25.9757C144.648 26.0045 144.612 26.0188 144.574 26.0188H143.365V36.2005H144.574C144.613 36.2005 144.648 36.2147 144.682 36.2435C144.716 36.2718 144.733 36.3054 144.733 36.3442V36.6458C144.733 36.6842 144.716 36.7176 144.682 36.7464C144.648 36.7747 144.612 36.7894 144.574 36.7894H141.551C141.455 36.7894 141.408 36.7413 141.408 36.6458V36.3442C141.408 36.2486 141.455 36.2005 141.551 36.2005H142.775V26.0188H141.551C141.455 26.0188 141.408 25.9709 141.408 25.8751V25.5735C141.408 25.478 141.455 25.4298 141.551 25.4298Z" fill="#313846" stroke="#313846" stroke-width="0.922971" stroke-miterlimit="10"/>
</g>
<mask id="mask17_111_2329" style="mask-type:luminance" maskUnits="userSpaceOnUse" x="0" y="-108" width="210" height="306">
<path fill-rule="evenodd" clip-rule="evenodd" d="M0 -107.687H210V197.821H0V-107.687Z" fill="white"/>
</mask>
<g mask="url(#mask17_111_2329)">
<path d="M148.011 27.0815C148.831 25.9711 149.822 25.4158 150.983 25.4158C152.144 25.4158 153.132 25.9687 153.948 27.0745C154.764 28.1803 155.172 29.5184 155.172 31.0883C155.172 32.6586 154.764 33.999 153.948 35.1094C153.132 36.2201 152.144 36.7749 150.983 36.7749C149.821 36.7749 148.831 36.2198 148.011 35.1094C147.19 33.999 146.78 32.6588 146.78 31.0883C146.78 29.5275 147.19 28.1922 148.011 27.0815ZM150.983 26.0045C149.985 26.0045 149.134 26.5025 148.428 27.498C147.723 28.4938 147.37 29.6903 147.37 31.0881C147.37 32.4861 147.725 33.685 148.435 34.6854C149.145 35.686 149.994 36.1862 150.983 36.1862C151.971 36.1862 152.818 35.686 153.523 34.6854C154.229 33.685 154.582 32.4861 154.582 31.0881C154.582 29.6906 154.229 28.4938 153.523 27.498C152.818 26.5022 151.972 26.0045 150.983 26.0045Z" fill="#313846" stroke="#313846" stroke-width="0.922971" stroke-miterlimit="10"/>
</g>
<mask id="mask18_111_2329" style="mask-type:luminance" maskUnits="userSpaceOnUse" x="0" y="-108" width="210" height="306">
<path fill-rule="evenodd" clip-rule="evenodd" d="M0 -107.687H210V197.821H0V-107.687Z" fill="white"/>
</mask>
<g mask="url(#mask18_111_2329)">
<path d="M157.449 25.4013C157.919 25.4013 158.313 25.5474 158.63 25.8393C158.947 26.1315 159.138 26.4162 159.206 26.6936L161.869 35.3244C162.003 35.6691 162.19 35.9037 162.43 36.028C162.459 36.0468 162.485 36.0562 162.509 36.0562C162.533 36.0562 162.555 36.0495 162.574 36.0347C162.593 36.0202 162.603 35.9989 162.603 35.9704V25.5589C162.603 25.5205 162.617 25.4849 162.646 25.4513C162.674 25.4177 162.708 25.401 162.747 25.401H163.048C163.087 25.401 163.121 25.418 163.149 25.4513C163.178 25.4849 163.192 25.5207 163.192 25.5589V36.6307C163.192 36.6592 163.178 36.691 163.149 36.7243C163.121 36.758 163.087 36.7746 163.048 36.7746C162.646 36.7746 162.28 36.6525 161.954 36.4087C161.628 36.1647 161.407 35.8555 161.292 35.4826L158.629 26.8518C158.552 26.6414 158.468 26.488 158.377 26.3922C158.286 26.297 158.154 26.2055 157.981 26.1194C157.923 26.0906 157.895 26.1049 157.895 26.1624V36.6312C157.895 36.727 157.846 36.7749 157.751 36.7749H157.449C157.353 36.7749 157.305 36.727 157.305 36.6312V25.5595C157.305 25.531 157.319 25.4973 157.348 25.4588C157.377 25.4206 157.411 25.4013 157.449 25.4013Z" fill="#313846" stroke="#313846" stroke-width="0.922971" stroke-miterlimit="10"/>
</g>
<mask id="mask19_111_2329" style="mask-type:luminance" maskUnits="userSpaceOnUse" x="0" y="-108" width="210" height="306">
<path fill-rule="evenodd" clip-rule="evenodd" d="M0 -107.687H210V197.821H0V-107.687Z" fill="white"/>
</mask>
<g mask="url(#mask19_111_2329)">
<path d="M169.702 25.4298C170.863 25.4298 171.852 25.983 172.667 27.0886C173.483 28.1941 173.891 29.5276 173.891 31.0878V36.6455C173.891 36.741 173.843 36.7892 173.747 36.7892H173.445C173.349 36.7892 173.301 36.741 173.301 36.6455V31.5331H166.089V36.6455C166.089 36.741 166.041 36.7892 165.945 36.7892H165.658C165.619 36.7892 165.583 36.7747 165.55 36.7461C165.516 36.7173 165.499 36.684 165.499 36.6455V31.0878C165.557 29.5082 165.986 28.1704 166.787 27.074C167.588 25.9782 168.56 25.4298 169.702 25.4298ZM172.206 27.4547C171.506 26.4974 170.671 26.0188 169.702 26.0188C168.732 26.0188 167.898 26.4977 167.197 27.4547C166.496 28.4123 166.132 29.5755 166.103 30.9444H173.301C173.272 29.5755 172.907 28.4123 172.206 27.4547Z" fill="#313846" stroke="#313846" stroke-width="0.922971" stroke-miterlimit="10"/>
</g>
<mask id="mask20_111_2329" style="mask-type:luminance" maskUnits="userSpaceOnUse" x="0" y="-108" width="210" height="306">
<path fill-rule="evenodd" clip-rule="evenodd" d="M0 -107.687H210V197.821H0V-107.687Z" fill="white"/>
</mask>
<g mask="url(#mask20_111_2329)">
<path d="M176.355 25.4155H176.643C176.662 25.4155 176.684 25.4276 176.708 25.4516C176.732 25.4755 176.753 25.5022 176.772 25.5304L176.787 25.5589V35.0371C176.806 35.3532 176.933 35.6212 177.168 35.8413C177.403 36.0616 177.68 36.1765 177.996 36.1859H181.882C181.921 36.1859 181.957 36.2005 181.99 36.2292C182.024 36.2575 182.041 36.2911 182.041 36.3296V36.631C182.041 36.6503 182.031 36.6697 182.012 36.6885C181.993 36.7076 181.969 36.7243 181.94 36.7388C181.911 36.7531 181.892 36.7655 181.882 36.7746C181.873 36.7843 181.724 36.7892 181.436 36.7892C181.263 36.7892 180.954 36.7867 180.508 36.7822C180.062 36.7771 179.752 36.7749 179.58 36.7749H178.039C177.56 36.7749 177.14 36.61 176.78 36.2796C176.42 35.9492 176.225 35.5453 176.197 35.0661V25.5595C176.197 25.521 176.214 25.4874 176.248 25.4588C176.281 25.4298 176.317 25.4155 176.355 25.4155Z" fill="#313846" stroke="#313846" stroke-width="0.922971" stroke-miterlimit="10"/>
</g>
<mask id="mask21_111_2329" style="mask-type:luminance" maskUnits="userSpaceOnUse" x="0" y="-108" width="210" height="306">
<path fill-rule="evenodd" clip-rule="evenodd" d="M0 -107.687H210V197.821H0V-107.687Z" fill="white"/>
</mask>
<g mask="url(#mask21_111_2329)">
<path d="M87.4093 42.6627H88.6181C89.4146 42.6824 90.091 42.9743 90.6479 43.5393C91.2043 44.1043 91.4829 44.784 91.4829 45.5785V45.8365C91.4729 46.6405 91.1827 47.3301 90.612 47.9051C90.0408 48.4795 89.3525 48.7666 88.5464 48.7666H86.3869C86.3386 48.7666 86.2982 48.7854 86.2645 48.8239C86.2308 48.8626 86.214 48.9006 86.214 48.9388V53.8792C86.214 53.9747 86.1658 54.0226 86.0703 54.0226H85.7677C85.6717 54.0226 85.6237 53.9747 85.6237 53.8792V44.4872C85.6237 43.9892 85.7965 43.5657 86.142 43.2159C86.4883 42.8664 86.9104 42.6824 87.4093 42.6627ZM87.4382 43.2511C87.1021 43.2511 86.8144 43.3733 86.5743 43.6176C86.3343 43.8614 86.2146 44.1509 86.2146 44.4864V47.9901C86.2146 48.0382 86.2313 48.0813 86.265 48.119C86.2987 48.158 86.3392 48.1765 86.3874 48.1765H88.5469C89.1896 48.1765 89.7414 47.9468 90.2023 47.4872C90.663 47.0274 90.8936 46.4769 90.8936 45.8349V45.5769C90.8936 44.9352 90.6633 44.3871 90.2023 43.9327C89.7417 43.478 89.1899 43.2503 88.5469 43.2503H87.4385V43.2511L87.4382 43.2511Z" fill="#313846" stroke="#313846" stroke-width="0.922971" stroke-miterlimit="10"/>
</g>
<mask id="mask22_111_2329" style="mask-type:luminance" maskUnits="userSpaceOnUse" x="0" y="-108" width="210" height="306">
<path fill-rule="evenodd" clip-rule="evenodd" d="M0 -107.687H210V197.821H0V-107.687Z" fill="white"/>
</mask>
<g mask="url(#mask22_111_2329)">
<path d="M95.4445 42.6339H99.3166C99.412 42.6339 99.4606 42.6823 99.4606 42.7776V43.0789C99.4606 43.1745 99.412 43.2223 99.3166 43.2223H95.4445C95.0993 43.2223 94.8064 43.3442 94.5666 43.5885C94.3263 43.8326 94.2069 44.1269 94.2069 44.4713V47.9613C94.2069 48.0003 94.2282 48.0404 94.2713 48.0834C94.3142 48.1262 94.3598 48.1477 94.408 48.1477H97.5171C97.6129 48.1477 97.6612 48.1959 97.6612 48.2911V48.5927C97.6612 48.6885 97.6129 48.7364 97.5171 48.7364H94.408C94.2735 48.7749 94.2066 48.8465 94.2066 48.9517V52.2261C94.2257 52.5611 94.3555 52.8412 94.5949 53.0664C94.8344 53.2916 95.1225 53.4038 95.4588 53.4038H99.3168C99.3554 53.4038 99.3907 53.4183 99.4245 53.4468C99.4582 53.4753 99.4752 53.5087 99.4752 53.5472V53.8485C99.4752 53.8875 99.4582 53.9209 99.4245 53.9492C99.3907 53.9777 99.3549 53.9925 99.3168 53.9925H95.4448C94.9453 53.9925 94.5208 53.8222 94.1704 53.4823C93.8201 53.142 93.6359 52.7279 93.6162 52.2404V44.4708C93.6162 43.9636 93.7961 43.5301 94.1561 43.1715C94.5162 42.8134 94.9453 42.6339 95.4445 42.6339Z" fill="#313846" stroke="#313846" stroke-width="0.922971" stroke-miterlimit="10"/>
</g>
<mask id="mask23_111_2329" style="mask-type:luminance" maskUnits="userSpaceOnUse" x="0" y="-108" width="210" height="306">
<path fill-rule="evenodd" clip-rule="evenodd" d="M0 -107.687H210V197.821H0V-107.687Z" fill="white"/>
</mask>
<g mask="url(#mask23_111_2329)">
<path d="M101.839 42.6339C102.308 42.6339 102.702 42.78 103.019 43.0719C103.336 43.3644 103.528 43.6493 103.595 43.9262L106.258 52.5573C106.392 52.9017 106.579 53.1363 106.819 53.2609C106.848 53.2797 106.875 53.2892 106.899 53.2892C106.923 53.2892 106.944 53.2822 106.963 53.2676C106.982 53.2531 106.992 53.2319 106.992 53.2036V42.7918C106.992 42.7536 107.006 42.7181 107.035 42.6842C107.063 42.6509 107.097 42.6339 107.136 42.6339H107.438C107.476 42.6339 107.51 42.6509 107.539 42.6842C107.567 42.7181 107.582 42.7542 107.582 42.7918V53.8641C107.582 53.8924 107.567 53.9239 107.539 53.9572C107.51 53.9911 107.476 54.0078 107.438 54.0078C107.035 54.0078 106.67 53.8859 106.344 53.6416C106.017 53.3976 105.797 53.0884 105.681 52.7155L103.018 44.0849C102.942 43.8745 102.857 43.7209 102.767 43.6251C102.675 43.5299 102.543 43.4389 102.37 43.3523C102.313 43.3238 102.284 43.3378 102.284 43.3951V53.8644C102.284 53.9597 102.236 54.0078 102.14 54.0078H101.838C101.742 54.0078 101.695 53.9594 101.695 53.8644V42.7921C101.695 42.7636 101.709 42.7302 101.737 42.6915C101.767 42.6533 101.8 42.6339 101.839 42.6339Z" fill="#313846" stroke="#313846" stroke-width="0.922971" stroke-miterlimit="10"/>
</g>
<mask id="mask24_111_2329" style="mask-type:luminance" maskUnits="userSpaceOnUse" x="0" y="-108" width="210" height="306">
<path fill-rule="evenodd" clip-rule="evenodd" d="M0 -107.687H210V197.821H0V-107.687Z" fill="white"/>
</mask>
<g mask="url(#mask24_111_2329)">
<path d="M109.946 42.6054H115.502C115.541 42.6054 115.576 42.6202 115.61 42.6485C115.644 42.677 115.661 42.7109 115.661 42.7491V43.0504C115.661 43.0886 115.644 43.122 115.61 43.1511C115.576 43.1796 115.54 43.1941 115.502 43.1941H113.343C113.257 43.1941 113.182 43.2299 113.12 43.3015C113.058 43.3733 113.026 43.4473 113.026 43.5237V53.8346C113.026 53.8733 113.012 53.9091 112.983 53.9424C112.955 53.9763 112.921 53.993 112.882 53.993H112.58C112.542 53.993 112.508 53.9763 112.48 53.9424C112.451 53.9091 112.437 53.8728 112.437 53.8346V43.5237C112.437 43.4473 112.406 43.3728 112.343 43.3015C112.28 43.2294 112.206 43.1941 112.12 43.1941H109.946C109.85 43.1941 109.802 43.1462 109.802 43.0504V42.7491C109.802 42.6533 109.849 42.6054 109.946 42.6054Z" fill="#313846" stroke="#313846" stroke-width="0.922971" stroke-miterlimit="10"/>
</g>
<mask id="mask25_111_2329" style="mask-type:luminance" maskUnits="userSpaceOnUse" x="0" y="-108" width="210" height="306">
<path fill-rule="evenodd" clip-rule="evenodd" d="M0 -107.687H210V197.821H0V-107.687Z" fill="white"/>
</mask>
<g mask="url(#mask25_111_2329)">
<path d="M117.88 44.4718C117.88 43.9361 118.07 43.4978 118.449 43.158C118.828 42.8182 119.252 42.6479 119.723 42.6479H120.875C121.671 42.6667 122.345 42.9562 122.897 43.5167C123.449 44.0766 123.725 44.7546 123.725 45.5486V45.8217C123.715 46.6259 123.427 47.3134 122.861 47.8824C122.295 48.4523 121.609 48.7372 120.803 48.7372H119.277C119.305 49.0343 119.425 49.2877 119.637 49.4978L123.696 53.548C123.725 53.5762 123.739 53.6101 123.739 53.6486C123.739 53.7347 123.701 53.816 123.624 53.8926C123.547 53.9693 123.466 54.0078 123.379 54.0078C123.341 54.0078 123.307 53.9933 123.279 53.9645L119.219 49.9143C119.133 49.8191 119.058 49.7303 118.996 49.6491C118.934 49.5675 118.888 49.489 118.859 49.4126C118.831 49.3356 118.809 49.2756 118.795 49.2323C118.78 49.1898 118.766 49.1325 118.752 49.0601C118.737 48.9885 118.725 48.9379 118.715 48.9091C118.715 48.8997 118.713 48.8849 118.708 48.8664C118.703 48.8473 118.701 48.833 118.701 48.823L118.687 48.8085V48.78C118.687 48.7517 118.673 48.7372 118.644 48.7372C118.596 48.7372 118.555 48.7587 118.521 48.8015C118.488 48.8448 118.471 48.8857 118.471 48.9237V53.8639C118.471 53.9591 118.422 54.0073 118.327 54.0073H118.025C117.929 54.0073 117.881 53.9588 117.881 53.8639L117.88 44.4718ZM119.694 43.2371C119.358 43.2371 119.07 43.3593 118.83 43.603C118.59 43.8474 118.471 44.1369 118.471 44.4718V47.9755C118.471 48.0909 118.528 48.1483 118.643 48.1483H120.803C121.445 48.1483 121.995 47.9212 122.451 47.4662C122.906 47.0117 123.134 46.4634 123.134 45.822V45.5634C123.134 44.9222 122.906 44.3742 122.451 43.9195C121.995 43.465 121.445 43.2374 120.803 43.2374L119.694 43.2371Z" fill="#313846" stroke="#313846" stroke-width="0.922971" stroke-miterlimit="10"/>
</g>
<mask id="mask26_111_2329" style="mask-type:luminance" maskUnits="userSpaceOnUse" x="0" y="-108" width="210" height="306">
<path fill-rule="evenodd" clip-rule="evenodd" d="M0 -107.687H210V197.821H0V-107.687Z" fill="white"/>
</mask>
<g mask="url(#mask26_111_2329)">
<path d="M133.76 48.5217V42.8064C133.76 42.7679 133.777 42.7346 133.811 42.7058C133.845 42.6775 133.881 42.6627 133.919 42.6627H134.207C134.302 42.6627 134.35 42.7114 134.35 42.8064V48.3638C134.293 49.9437 133.865 51.2817 133.069 52.3779C132.272 53.474 131.303 54.0221 130.162 54.0221C129 54.0221 128.01 53.4689 127.189 52.3631C126.369 51.2575 125.959 49.9246 125.959 48.3638V42.8064C125.959 42.7679 125.975 42.7346 126.009 42.7058C126.042 42.6775 126.079 42.6627 126.117 42.6627H126.405C126.5 42.6627 126.548 42.7114 126.548 42.8064V47.919L126.563 48.5217C126.591 49.8912 126.956 51.0517 127.657 52.0044C128.358 52.9569 129.192 53.4331 130.162 53.4331C131.131 53.4331 131.966 52.9569 132.666 52.0044C133.367 51.052 133.732 49.8912 133.76 48.5217Z" fill="#313846" stroke="#313846" stroke-width="0.922971" stroke-miterlimit="10"/>
</g>
<mask id="mask27_111_2329" style="mask-type:luminance" maskUnits="userSpaceOnUse" x="0" y="-108" width="210" height="306">
<path fill-rule="evenodd" clip-rule="evenodd" d="M0 -107.687H210V197.821H0V-107.687Z" fill="white"/>
</mask>
<g mask="url(#mask27_111_2329)">
<path d="M87.4093 59.8959H88.6181C89.4146 59.9144 90.091 60.2064 90.6479 60.7717C91.2043 61.3369 91.4829 62.0161 91.4829 62.8109V63.0694C91.4729 63.8734 91.1827 64.563 90.612 65.1374C90.0408 65.7116 89.3525 65.9992 88.5464 65.9992H86.3869C86.3386 65.9992 86.2982 66.0183 86.2645 66.0565C86.2308 66.095 86.214 66.1332 86.214 66.1717V71.1113C86.214 71.2071 86.1658 71.255 86.0703 71.255H85.7677C85.6717 71.255 85.6237 71.2071 85.6237 71.1113V61.7193C85.6237 61.2218 85.7965 60.798 86.142 60.4485C86.4883 60.099 86.9104 59.9147 87.4093 59.8959ZM87.4382 60.4843C87.1021 60.4843 86.8144 60.6065 86.5743 60.8505C86.3343 61.0948 86.2146 61.384 86.2146 61.7193V65.2232C86.2146 65.2717 86.2313 65.3144 86.265 65.3521C86.2987 65.3903 86.3392 65.4097 86.3874 65.4097H88.5469C89.1896 65.4097 89.7414 65.1799 90.2023 64.7201C90.663 64.2608 90.8936 63.71 90.8936 63.0686V62.81C90.8936 62.1686 90.6633 61.6208 90.2023 61.1658C89.7417 60.7114 89.1899 60.4838 88.5469 60.4838L87.4382 60.4843Z" fill="#313846" stroke="#313846" stroke-width="0.922971" stroke-miterlimit="10"/>
</g>
<mask id="mask28_111_2329" style="mask-type:luminance" maskUnits="userSpaceOnUse" x="0" y="-108" width="210" height="306">
<path fill-rule="evenodd" clip-rule="evenodd" d="M0 -107.687H210V197.821H0V-107.687Z" fill="white"/>
</mask>
<g mask="url(#mask28_111_2329)">
<path d="M94.6745 61.5471C95.4949 60.4364 96.4858 59.8813 97.6468 59.8813C98.8079 59.8813 99.7966 60.4345 100.612 61.5398C101.427 62.6456 101.836 63.9837 101.836 65.5536C101.836 67.1239 101.427 68.464 100.612 69.5747C99.7966 70.6851 98.8082 71.2402 97.6468 71.2402C96.4855 71.2402 95.4949 70.6851 94.6745 69.5747C93.8538 68.464 93.4438 67.1239 93.4438 65.5536C93.4436 63.9931 93.8538 62.6575 94.6745 61.5471ZM97.6468 60.4698C96.6487 60.4698 95.7975 60.9681 95.0917 61.9636C94.3864 62.9594 94.0334 64.1556 94.0334 65.5536C94.0334 66.9517 94.3883 68.1509 95.0987 69.1512C95.8088 70.1516 96.6579 70.6517 97.6463 70.6517C98.6348 70.6517 99.4819 70.1516 100.187 69.1512C100.892 68.1509 101.245 66.9517 101.245 65.5536C101.245 64.1561 100.892 62.9594 100.187 61.9636C99.4824 60.9681 98.6353 60.4698 97.6468 60.4698Z" fill="#313846" stroke="#313846" stroke-width="0.922971" stroke-miterlimit="10"/>
</g>
<mask id="mask29_111_2329" style="mask-type:luminance" maskUnits="userSpaceOnUse" x="0" y="-108" width="210" height="306">
<path fill-rule="evenodd" clip-rule="evenodd" d="M0 -107.687H210V197.821H0V-107.687Z" fill="white"/>
</mask>
<g mask="url(#mask29_111_2329)">
<path d="M104.481 59.8813H104.769C104.788 59.8813 104.81 59.8935 104.834 59.9174C104.858 59.9413 104.879 59.9677 104.898 59.9962L104.913 60.025V69.5031C104.932 69.8193 105.059 70.0873 105.294 70.3068C105.529 70.5272 105.806 70.6423 106.122 70.6517H110.009C110.047 70.6517 110.083 70.666 110.116 70.6945C110.15 70.7228 110.167 70.7567 110.167 70.7952V71.0968C110.167 71.1161 110.157 71.1355 110.139 71.1544C110.119 71.1735 110.095 71.1904 110.066 71.2047C110.038 71.2195 110.018 71.2313 110.009 71.2407C109.999 71.2501 109.85 71.2553 109.562 71.2553C109.39 71.2553 109.08 71.2531 108.634 71.248C108.188 71.2431 107.878 71.2413 107.706 71.2413H106.166C105.686 71.2413 105.266 71.0763 104.906 70.7459C104.546 70.4153 104.352 70.0111 104.323 69.5322V60.0256C104.323 59.9871 104.34 59.9532 104.374 59.9249C104.407 59.8959 104.443 59.8813 104.481 59.8813Z" fill="#313846" stroke="#313846" stroke-width="0.922971" stroke-miterlimit="10"/>
</g>
<mask id="mask30_111_2329" style="mask-type:luminance" maskUnits="userSpaceOnUse" x="0" y="-108" width="210" height="306">
<path fill-rule="evenodd" clip-rule="evenodd" d="M0 -107.687H210V197.821H0V-107.687Z" fill="white"/>
</mask>
<g mask="url(#mask30_111_2329)">
<path d="M112.445 59.8959H115.468C115.506 59.8959 115.542 59.9101 115.575 59.9384C115.609 59.9669 115.626 60.0008 115.626 60.039V60.3404C115.626 60.3791 115.609 60.413 115.575 60.441C115.542 60.4695 115.506 60.484 115.468 60.484H114.259V70.6657H115.468C115.506 70.6657 115.542 70.6805 115.575 70.7088C115.609 70.7373 115.626 70.7712 115.626 70.8094V71.1108C115.626 71.1495 115.609 71.1829 115.575 71.2114C115.542 71.2399 115.506 71.2544 115.468 71.2544H112.445C112.349 71.2544 112.301 71.2065 112.301 71.1108V70.8094C112.301 70.7142 112.349 70.6657 112.445 70.6657H113.668V60.4843H112.445C112.349 60.4843 112.301 60.4364 112.301 60.3406V60.0393C112.301 59.9432 112.349 59.8959 112.445 59.8959Z" fill="#313846" stroke="#313846" stroke-width="0.922971" stroke-miterlimit="10"/>
</g>
<mask id="mask31_111_2329" style="mask-type:luminance" maskUnits="userSpaceOnUse" x="0" y="-108" width="210" height="306">
<path fill-rule="evenodd" clip-rule="evenodd" d="M0 -107.687H210V197.821H0V-107.687Z" fill="white"/>
</mask>
<g mask="url(#mask31_111_2329)">
<path d="M117.904 59.8383H123.46C123.499 59.8383 123.534 59.8526 123.568 59.8814C123.602 59.9099 123.619 59.9432 123.619 59.9815V60.2836C123.619 60.3221 123.602 60.3554 123.568 60.3837C123.534 60.4128 123.498 60.427 123.46 60.427H121.301C121.215 60.427 121.14 60.4628 121.078 60.5341C121.015 60.6065 120.984 60.6807 120.984 60.7566V71.0677C120.984 71.1062 120.97 71.142 120.941 71.1754C120.912 71.2087 120.879 71.2257 120.84 71.2257H120.538C120.5 71.2257 120.466 71.2087 120.437 71.1754C120.409 71.142 120.394 71.1057 120.394 71.0677V60.7566C120.394 60.6807 120.363 60.6059 120.301 60.5341C120.238 60.4623 120.164 60.427 120.077 60.427H117.904C117.808 60.427 117.76 60.3789 117.76 60.2836V59.9815C117.76 59.8859 117.807 59.8383 117.904 59.8383Z" fill="#313846" stroke="#313846" stroke-width="0.922971" stroke-miterlimit="10"/>
</g>
<mask id="mask32_111_2329" style="mask-type:luminance" maskUnits="userSpaceOnUse" x="0" y="-108" width="210" height="306">
<path fill-rule="evenodd" clip-rule="evenodd" d="M0 -107.687H210V197.821H0V-107.687Z" fill="white"/>
</mask>
<g mask="url(#mask32_111_2329)">
<path d="M125.896 59.8959H128.919C128.957 59.8959 128.992 59.9101 129.026 59.9384C129.06 59.9669 129.077 60.0008 129.077 60.039V60.3404C129.077 60.3791 129.06 60.413 129.026 60.441C128.992 60.4695 128.956 60.484 128.919 60.484H127.709V70.6657H128.919C128.957 70.6657 128.992 70.6805 129.026 70.7088C129.06 70.7373 129.077 70.7712 129.077 70.8094V71.1108C129.077 71.1495 129.06 71.1829 129.026 71.2114C128.992 71.2399 128.956 71.2544 128.919 71.2544H125.896C125.8 71.2544 125.752 71.2065 125.752 71.1108V70.8094C125.752 70.7142 125.8 70.6657 125.896 70.6657H127.119V60.4843H125.896C125.8 60.4843 125.752 60.4364 125.752 60.3406V60.0393C125.752 59.9432 125.799 59.8959 125.896 59.8959Z" fill="#313846" stroke="#313846" stroke-width="0.922971" stroke-miterlimit="10"/>
</g>
<mask id="mask33_111_2329" style="mask-type:luminance" maskUnits="userSpaceOnUse" x="0" y="-108" width="210" height="306">
<path fill-rule="evenodd" clip-rule="evenodd" d="M0 -107.687H210V197.821H0V-107.687Z" fill="white"/>
</mask>
<g mask="url(#mask33_111_2329)">
<path d="M137.875 61.9636C137.155 60.9681 136.306 60.4698 135.327 60.4698C134.329 60.4698 133.477 60.9681 132.772 61.9636C132.067 62.9594 131.714 64.1556 131.714 65.5536C131.714 66.9517 132.069 68.1509 132.779 69.1512C133.489 70.1516 134.338 70.6517 135.327 70.6517C136.324 70.6517 137.174 70.1537 137.875 69.1582C137.942 69.0624 138.023 69.0145 138.119 69.0145C138.196 69.0145 138.26 69.0409 138.313 69.0934C138.366 69.1461 138.393 69.2155 138.393 69.3016C138.393 69.3877 138.359 69.4789 138.292 69.5747C137.486 70.6851 136.497 71.2402 135.327 71.2402C134.165 71.2402 133.175 70.6851 132.354 69.5747C131.534 68.464 131.123 67.1239 131.123 65.5536C131.123 63.9931 131.534 62.6575 132.354 61.5471C133.175 60.4364 134.165 59.8813 135.327 59.8813C136.497 59.8813 137.486 60.4364 138.292 61.5471C138.35 61.6238 138.378 61.705 138.378 61.7911C138.378 61.8767 138.35 61.9491 138.292 62.0064C138.234 62.0642 138.172 62.0925 138.105 62.0925C138.01 62.0927 137.933 62.0497 137.875 61.9636Z" fill="#313846" stroke="#313846" stroke-width="0.922971" stroke-miterlimit="10"/>
</g>
<mask id="mask34_111_2329" style="mask-type:luminance" maskUnits="userSpaceOnUse" x="0" y="-108" width="210" height="306">
<path fill-rule="evenodd" clip-rule="evenodd" d="M0 -107.687H210V197.821H0V-107.687Z" fill="white"/>
</mask>
<g mask="url(#mask34_111_2329)">
<path d="M140.656 59.8959H143.679C143.717 59.8959 143.753 59.9101 143.787 59.9384C143.82 59.9669 143.837 60.0008 143.837 60.039V60.3404C143.837 60.3791 143.82 60.413 143.787 60.441C143.753 60.4695 143.717 60.484 143.679 60.484H142.47V70.6657H143.679C143.717 70.6657 143.753 70.6805 143.787 70.7088C143.82 70.7373 143.837 70.7712 143.837 70.8094V71.1108C143.837 71.1495 143.82 71.1829 143.787 71.2114C143.753 71.2399 143.717 71.2544 143.679 71.2544H140.656C140.56 71.2544 140.512 71.2065 140.512 71.1108V70.8094C140.512 70.7142 140.56 70.6657 140.656 70.6657H141.879V60.4843H140.656C140.56 60.4843 140.512 60.4364 140.512 60.3406V60.0393C140.512 59.9432 140.56 59.8959 140.656 59.8959Z" fill="#313846" stroke="#313846" stroke-width="0.922971" stroke-miterlimit="10"/>
</g>
<mask id="mask35_111_2329" style="mask-type:luminance" maskUnits="userSpaceOnUse" x="0" y="-108" width="210" height="306">
<path fill-rule="evenodd" clip-rule="evenodd" d="M0 -107.687H210V197.821H0V-107.687Z" fill="white"/>
</mask>
<g mask="url(#mask35_111_2329)">
<path d="M155.454 70.6518C156.02 70.6518 156.5 70.4605 156.893 70.0773C157.287 69.6942 157.483 69.2298 157.483 68.6839C157.483 68.0234 157.191 67.4825 156.605 67.0612L152.43 64.6343C152.065 64.4239 151.77 64.1196 151.545 63.7222C151.319 63.3245 151.207 62.8964 151.207 62.4366C151.207 61.7282 151.456 61.1231 151.955 60.6202C152.454 60.1176 153.059 59.8666 153.769 59.8666H155.022C155.799 59.9142 156.454 60.2182 156.986 60.7781C157.52 61.3381 157.786 62.0112 157.786 62.7958C157.786 62.8822 157.757 62.9489 157.699 62.9971C157.642 63.0452 157.572 63.0692 157.491 63.0692C157.409 63.0692 157.339 63.0452 157.283 62.9971C157.225 62.9489 157.196 62.8822 157.196 62.7958C157.196 62.1447 156.968 61.5918 156.512 61.1373C156.057 60.6832 155.507 60.4555 154.865 60.4555H154.26L153.771 60.4698C153.214 60.4698 152.739 60.6616 152.346 61.0442C151.952 61.4274 151.756 61.8912 151.756 62.4372C151.756 63.1074 152.043 63.6487 152.619 64.0598L156.563 66.3433L156.88 66.5446C157.005 66.6205 157.142 66.7289 157.291 66.8672C157.44 67.006 157.6 67.2455 157.773 67.585C157.946 67.9257 158.032 68.2868 158.032 68.6694C158.032 69.3783 157.778 69.9861 157.269 70.4933C156.76 71.001 156.151 71.2542 155.441 71.2542V71.2394H154.232C153.417 71.2394 152.723 70.9545 152.152 70.3851C151.581 69.8155 151.296 69.1238 151.296 68.3102C151.296 68.2146 151.322 68.1425 151.375 68.0944C151.427 68.0465 151.492 68.0223 151.569 68.0223C151.656 68.0223 151.73 68.0492 151.792 68.1014C151.855 68.1541 151.886 68.2233 151.886 68.3096C151.886 68.9508 152.114 69.5013 152.57 69.9611C153.025 70.4204 153.58 70.6507 154.232 70.6507H155.455V70.6518L155.454 70.6518Z" fill="#313846" stroke="#313846" stroke-width="0.922971" stroke-miterlimit="10"/>
</g>
<mask id="mask36_111_2329" style="mask-type:luminance" maskUnits="userSpaceOnUse" x="0" y="-108" width="210" height="306">
<path fill-rule="evenodd" clip-rule="evenodd" d="M0 -107.687H210V197.821H0V-107.687Z" fill="white"/>
</mask>
<g mask="url(#mask36_111_2329)">
<path d="M161.222 61.5471C162.042 60.4364 163.034 59.8813 164.194 59.8813C165.355 59.8813 166.344 60.4345 167.16 61.5398C167.975 62.6456 168.383 63.9837 168.383 65.5536C168.383 67.1239 167.975 68.464 167.16 69.5747C166.344 70.6851 165.355 71.2402 164.194 71.2402C163.033 71.2402 162.042 70.6851 161.222 69.5747C160.401 68.464 159.991 67.1239 159.991 65.5536C159.991 63.9931 160.401 62.6575 161.222 61.5471ZM164.195 60.4698C163.196 60.4698 162.345 60.9681 161.639 61.9636C160.934 62.9594 160.581 64.1556 160.581 65.5536C160.581 66.9517 160.936 68.1509 161.646 69.1512C162.356 70.1516 163.205 70.6517 164.194 70.6517C165.182 70.6517 166.029 70.1516 166.735 69.1512C167.44 68.1509 167.793 66.9517 167.793 65.5536C167.793 64.1561 167.44 62.9594 166.735 61.9636C166.03 60.9681 165.183 60.4698 164.195 60.4698Z" fill="#313846" stroke="#313846" stroke-width="0.922971" stroke-miterlimit="10"/>
</g>
<mask id="mask37_111_2329" style="mask-type:luminance" maskUnits="userSpaceOnUse" x="0" y="-108" width="210" height="306">
<path fill-rule="evenodd" clip-rule="evenodd" d="M0 -107.687H210V197.821H0V-107.687Z" fill="white"/>
</mask>
<g mask="url(#mask37_111_2329)">
<path d="M177.095 61.9636C176.376 60.9681 175.526 60.4698 174.548 60.4698C173.549 60.4698 172.698 60.9681 171.992 61.9636C171.287 62.9594 170.934 64.1556 170.934 65.5536C170.934 66.9517 171.289 68.1509 171.999 69.1512C172.71 70.1516 173.558 70.6517 174.547 70.6517C175.545 70.6517 176.395 70.1537 177.095 69.1582C177.162 69.0624 177.244 69.0145 177.34 69.0145C177.416 69.0145 177.481 69.0409 177.534 69.0934C177.586 69.1461 177.613 69.2155 177.613 69.3016C177.613 69.3877 177.579 69.4789 177.512 69.5747C176.706 70.6851 175.718 71.2402 174.547 71.2402C173.386 71.2402 172.395 70.6851 171.575 69.5747C170.754 68.464 170.344 67.1239 170.344 65.5536C170.344 63.9931 170.754 62.6575 171.575 61.5471C172.395 60.4364 173.386 59.8813 174.547 59.8813C175.718 59.8813 176.706 60.4364 177.512 61.5471C177.57 61.6238 177.599 61.705 177.599 61.7911C177.599 61.8767 177.57 61.9491 177.512 62.0064C177.455 62.0642 177.392 62.0925 177.326 62.0925C177.23 62.0927 177.153 62.0497 177.095 61.9636Z" fill="#313846" stroke="#313846" stroke-width="0.922971" stroke-miterlimit="10"/>
</g>
<mask id="mask38_111_2329" style="mask-type:luminance" maskUnits="userSpaceOnUse" x="0" y="-108" width="210" height="306">
<path fill-rule="evenodd" clip-rule="evenodd" d="M0 -107.687H210V197.821H0V-107.687Z" fill="white"/>
</mask>
<g mask="url(#mask38_111_2329)">
<path d="M179.876 59.8959H182.899C182.938 59.8959 182.973 59.9101 183.007 59.9384C183.041 59.9669 183.058 60.0008 183.058 60.039V60.3404C183.058 60.3791 183.041 60.413 183.007 60.441C182.973 60.4695 182.937 60.484 182.899 60.484H181.69V70.6657H182.899C182.938 70.6657 182.973 70.6805 183.007 70.7088C183.041 70.7373 183.058 70.7712 183.058 70.8094V71.1108C183.058 71.1495 183.041 71.1829 183.007 71.2114C182.973 71.2399 182.937 71.2544 182.899 71.2544H179.876C179.781 71.2544 179.733 71.2065 179.733 71.1108V70.8094C179.733 70.7142 179.781 70.6657 179.876 70.6657H181.1V60.4843H179.876C179.781 60.4843 179.733 60.4364 179.733 60.3406V60.0393C179.733 59.9432 179.78 59.8959 179.876 59.8959Z" fill="#313846" stroke="#313846" stroke-width="0.922971" stroke-miterlimit="10"/>
</g>
<mask id="mask39_111_2329" style="mask-type:luminance" maskUnits="userSpaceOnUse" x="0" y="-108" width="210" height="306">
<path fill-rule="evenodd" clip-rule="evenodd" d="M0 -107.687H210V197.821H0V-107.687Z" fill="white"/>
</mask>
<g mask="url(#mask39_111_2329)">
<path d="M189.481 59.8959C190.642 59.8959 191.63 60.4488 192.446 61.5543C193.262 62.6596 193.67 63.9928 193.67 65.5534V71.1108C193.67 71.2065 193.622 71.2544 193.526 71.2544H193.223C193.128 71.2544 193.079 71.2065 193.079 71.1108V65.9987H185.868V71.1108C185.868 71.2065 185.819 71.2544 185.724 71.2544H185.436C185.398 71.2544 185.362 71.2399 185.329 71.2114C185.295 71.1829 185.278 71.1495 185.278 71.1108V65.5534C185.336 63.974 185.765 62.6357 186.567 61.5395C187.367 60.4439 188.339 59.8959 189.481 59.8959ZM191.986 61.9205C191.285 60.9632 190.45 60.4843 189.481 60.4843C188.512 60.4843 187.677 60.9632 186.976 61.9205C186.275 62.8784 185.911 64.041 185.882 65.4102H193.08C193.051 64.041 192.686 62.8781 191.986 61.9205Z" fill="#313846" stroke="#313846" stroke-width="0.922971" stroke-miterlimit="10"/>
</g>
<mask id="mask40_111_2329" style="mask-type:luminance" maskUnits="userSpaceOnUse" x="0" y="-108" width="210" height="306">
<path fill-rule="evenodd" clip-rule="evenodd" d="M0 -107.687H210V197.821H0V-107.687Z" fill="white"/>
</mask>
<g mask="url(#mask40_111_2329)">
<path d="M196.134 59.8813H196.422C196.44 59.8813 196.462 59.8935 196.486 59.9174C196.51 59.9413 196.532 59.9677 196.551 59.9962L196.566 60.025V69.5031C196.584 69.8193 196.712 70.0873 196.947 70.3068C197.182 70.5272 197.458 70.6423 197.774 70.6517H201.661C201.699 70.6517 201.735 70.666 201.769 70.6945C201.802 70.7228 201.82 70.7567 201.82 70.7952V71.0968C201.82 71.1161 201.81 71.1355 201.791 71.1544C201.772 71.1735 201.748 71.1904 201.718 71.2047C201.69 71.2195 201.67 71.2313 201.661 71.2407C201.651 71.2501 201.503 71.2553 201.215 71.2553C201.042 71.2553 200.733 71.2531 200.287 71.248C199.841 71.2431 199.531 71.2413 199.359 71.2413H197.818C197.338 71.2413 196.919 71.0763 196.559 70.7459C196.199 70.4153 196.004 70.0111 195.975 69.5322V60.0256C195.975 59.9871 195.992 59.9532 196.026 59.9249C196.06 59.8959 196.096 59.8813 196.134 59.8813Z" fill="#313846" stroke="#313846" stroke-width="0.922971" stroke-miterlimit="10"/>
</g>
<mask id="mask41_111_2329" style="mask-type:luminance" maskUnits="userSpaceOnUse" x="0" y="-108" width="210" height="306">
<path fill-rule="evenodd" clip-rule="evenodd" d="M0 -107.687H210V197.821H0V-107.687Z" fill="white"/>
</mask>
<g mask="url(#mask41_111_2329)">
<path d="M205.868 59.8671H209.74C209.836 59.8671 209.884 59.9147 209.884 60.0105V60.3118C209.884 60.4073 209.836 60.4555 209.74 60.4555H205.868C205.523 60.4555 205.23 60.5774 204.99 60.8214C204.75 61.0652 204.63 61.3595 204.63 61.7045V65.1941C204.63 65.2329 204.652 65.273 204.695 65.3163C204.738 65.3591 204.783 65.3806 204.832 65.3806H207.941C208.036 65.3806 208.085 65.429 208.085 65.5243V65.8256C208.085 65.9211 208.036 65.9688 207.941 65.9688H204.832C204.697 66.0078 204.63 66.0791 204.63 66.1848V69.459C204.649 69.7942 204.779 70.0743 205.019 70.299C205.259 70.5242 205.546 70.6367 205.882 70.6367H209.74C209.779 70.6367 209.814 70.6512 209.848 70.6797C209.881 70.708 209.899 70.7419 209.899 70.7803V71.0814C209.899 71.1202 209.882 71.1538 209.848 71.182C209.814 71.2106 209.778 71.2251 209.74 71.2251H205.868C205.369 71.2251 204.944 71.0551 204.594 70.715C204.243 70.3749 204.059 69.9613 204.04 69.473V61.7039C204.04 61.1962 204.22 60.763 204.58 60.4038C204.94 60.0463 205.369 59.8671 205.868 59.8671Z" fill="#313846" stroke="#313846" stroke-width="0.922971" stroke-miterlimit="10"/>
</g>
<mask id="mask42_111_2329" style="mask-type:luminance" maskUnits="userSpaceOnUse" x="0" y="-108" width="210" height="306">
<path fill-rule="evenodd" clip-rule="evenodd" d="M0 -107.687H210V197.821H0V-107.687Z" fill="white"/>
</mask>
<g mask="url(#mask42_111_2329)">
<path d="M93.484 77.0709C93.6572 77.0709 93.8079 77.1331 93.9379 77.2579C94.0674 77.3825 94.1324 77.5307 94.1324 77.7027V87.8701C94.1324 88.0426 94.0698 88.1906 93.9452 88.3151C93.8206 88.4397 93.6696 88.5016 93.4916 88.5016C93.3141 88.5016 93.1652 88.4397 93.0455 88.3151C92.9252 88.1906 92.8656 88.042 92.8656 87.8701V79.3254C92.8656 79.2968 92.844 79.2799 92.8009 79.2751C92.758 79.2699 92.7267 79.2821 92.7073 79.3108L91.6708 82.0396C91.632 82.1255 91.6134 82.183 91.6134 82.2118C91.4885 82.5761 91.2652 82.8777 90.944 83.1167C90.6228 83.3564 90.2603 83.4753 89.8574 83.4753C89.4544 83.4753 89.092 83.3564 88.7705 83.1167C88.449 82.8772 88.2308 82.5713 88.1156 82.1976L87.0072 79.3254C86.9975 79.2971 86.9786 79.2826 86.9495 79.2826C86.9209 79.2826 86.9063 79.2971 86.9063 79.3254V87.8701C86.9063 88.0426 86.8416 88.1906 86.7119 88.3151C86.5821 88.4397 86.4284 88.5016 86.2512 88.5016C86.0735 88.5016 85.9249 88.4397 85.8051 88.3151C85.6848 88.1906 85.6252 88.042 85.6252 87.8701V77.7027C85.6252 77.5302 85.6851 77.3825 85.8051 77.2579C85.9249 77.1333 86.0759 77.0709 86.2585 77.0709C86.6423 77.0709 86.9834 77.174 87.2807 77.3798C87.5784 77.5856 87.7987 77.8563 87.9428 78.1916L89.2384 81.5803L89.3538 81.8677C89.4493 82.0878 89.6176 82.1981 89.8576 82.1981C90.0974 82.1981 90.2654 82.0924 90.3612 81.8822L91.7863 78.1916C91.9208 77.8563 92.1412 77.5856 92.4486 77.3798C92.7545 77.1737 93.1 77.0709 93.484 77.0709Z" fill="#0F80A2"/>
</g>
<mask id="mask43_111_2329" style="mask-type:luminance" maskUnits="userSpaceOnUse" x="0" y="-108" width="210" height="306">
<path fill-rule="evenodd" clip-rule="evenodd" d="M0 -107.687H210V197.821H0V-107.687Z" fill="white"/>
</mask>
<g mask="url(#mask43_111_2329)">
<path d="M96.1681 82.772C96.1681 81.7383 96.3574 80.7816 96.7366 79.9001C97.1155 79.0198 97.6334 78.3234 98.2912 77.8106C98.949 77.2978 99.6612 77.0422 100.429 77.0422C101.197 77.0422 101.907 77.2983 102.559 77.8106C103.212 78.3229 103.73 79.0192 104.114 79.9001C104.498 80.781 104.69 81.7383 104.69 82.772V87.8416C104.69 88.0241 104.625 88.1742 104.496 88.2945C104.366 88.4145 104.215 88.4739 104.042 88.4739C103.869 88.4739 103.72 88.4142 103.596 88.2945C103.471 88.1747 103.409 88.0241 103.409 87.8416V83.8066H97.4494V87.8416C97.4494 88.0241 97.3847 88.1742 97.255 88.2945C97.1252 88.4145 96.9715 88.4739 96.7941 88.4739C96.6166 88.4739 96.468 88.4142 96.348 88.2945C96.228 88.1747 96.1681 88.0241 96.1681 87.8416V82.772ZM102.48 79.5487C101.909 78.7297 101.225 78.3205 100.429 78.3205C99.6324 78.3205 98.9465 78.7297 98.3705 79.5487C97.7949 80.3672 97.488 81.3651 97.4494 82.5428H103.409C103.361 81.3651 103.051 80.3672 102.48 79.5487Z" fill="#0F80A2"/>
</g>
<mask id="mask44_111_2329" style="mask-type:luminance" maskUnits="userSpaceOnUse" x="0" y="-108" width="210" height="306">
<path fill-rule="evenodd" clip-rule="evenodd" d="M0 -107.687H210V197.821H0V-107.687Z" fill="white"/>
</mask>
<g mask="url(#mask44_111_2329)">
<path d="M109.691 77.0709C110.564 77.0809 111.28 77.3825 111.836 77.9758C112.393 78.5696 112.671 79.2592 112.671 80.0438C112.671 80.848 112.39 81.5446 111.829 82.1341C111.268 82.7228 110.593 83.0166 109.807 83.0166H109.734V83.3615C109.734 83.467 109.763 83.5577 109.821 83.6343L112.57 87.4969C112.646 87.6027 112.686 87.7221 112.686 87.8561C112.686 88.0765 112.594 88.2538 112.412 88.3878C112.306 88.4639 112.186 88.5027 112.051 88.5027C111.831 88.5027 111.658 88.412 111.533 88.2293L108.842 84.4528C108.583 84.127 108.453 83.7541 108.453 83.3324V83.0166H107.993V87.8707C107.993 88.0431 107.928 88.1911 107.798 88.3157C107.669 88.4403 107.515 88.5021 107.338 88.5021C107.16 88.5021 107.011 88.4403 106.892 88.3157C106.771 88.1911 106.711 88.0426 106.711 87.8707V78.7802C106.711 78.3204 106.889 77.9214 107.245 77.5811C107.599 77.2412 108.012 77.0709 108.483 77.0709H109.691ZM108.54 78.3495C108.387 78.3495 108.257 78.4017 108.152 78.5074C108.046 78.6129 107.993 78.742 107.993 78.8951V81.5085C107.993 81.5658 108.015 81.6188 108.058 81.6664C108.101 81.7149 108.146 81.7386 108.195 81.7386H109.692C110.162 81.7386 110.563 81.5733 110.894 81.2429C111.225 80.9128 111.391 80.5133 111.391 80.0438C111.391 79.5751 111.225 79.175 110.894 78.8446C110.562 78.5144 110.162 78.3495 109.692 78.3495H108.54Z" fill="#0F80A2"/>
</g>
<mask id="mask45_111_2329" style="mask-type:luminance" maskUnits="userSpaceOnUse" x="0" y="-108" width="210" height="306">
<path fill-rule="evenodd" clip-rule="evenodd" d="M0 -107.687H210V197.821H0V-107.687Z" fill="white"/>
</mask>
<g mask="url(#mask45_111_2329)">
<path d="M122.74 84.3668C122.74 84.5866 122.687 84.8624 122.581 85.192C122.476 85.5224 122.31 85.8816 122.085 86.269C121.859 86.6567 121.593 87.0156 121.286 87.3463C120.979 87.6767 120.597 87.9547 120.141 88.1793C119.686 88.4045 119.208 88.5167 118.709 88.5167C117.941 88.5167 117.229 88.2611 116.571 87.7488C115.914 87.2368 115.396 86.5405 115.016 85.659C114.637 84.7784 114.448 83.8187 114.448 82.7799C114.448 81.7413 114.637 80.7816 115.016 79.9007C115.395 79.0203 115.914 78.324 116.571 77.8112C117.229 77.2989 117.941 77.0427 118.709 77.0427C119.294 77.0427 119.853 77.1988 120.386 77.5098C120.919 77.8206 121.372 78.2443 121.746 78.7806C121.814 78.8764 121.847 78.9869 121.847 79.111C121.847 79.3407 121.751 79.5186 121.559 79.6426C121.444 79.7193 121.331 79.7575 121.221 79.7575C121.111 79.7575 121.007 79.7268 120.912 79.6639C120.816 79.6023 120.708 79.4965 120.588 79.3483C120.468 79.1998 120.398 79.111 120.379 79.0825C119.871 78.5755 119.314 78.3213 118.71 78.3213C117.884 78.3213 117.182 78.7572 116.601 79.6281C116.021 80.4996 115.73 81.5505 115.73 82.7804C115.73 84.0105 116.02 85.0617 116.601 85.9324C117.182 86.8039 117.885 87.2392 118.71 87.2392C119.065 87.2392 119.403 87.1512 119.725 86.9737C120.046 86.7969 120.308 86.5841 120.509 86.3347C120.711 86.086 120.888 85.8202 121.042 85.538C121.195 85.2555 121.306 85.0114 121.374 84.8051C121.441 84.5992 121.475 84.4531 121.475 84.3673C121.475 84.2142 121.419 84.0845 121.309 83.9796C121.199 83.8741 121.072 83.8216 120.927 83.8216H117.429C117.256 83.8216 117.108 83.7568 116.983 83.6279C116.858 83.4988 116.796 83.3473 116.796 83.1748C116.796 83.0024 116.858 82.8546 116.983 82.7301C117.108 82.6052 117.257 82.5436 117.429 82.5436H120.927C121.427 82.5436 121.854 82.7231 122.209 83.0817C122.563 83.4399 122.74 83.8687 122.74 84.3668Z" fill="#0F80A2"/>
</g>
<mask id="mask46_111_2329" style="mask-type:luminance" maskUnits="userSpaceOnUse" x="0" y="-108" width="210" height="306">
<path fill-rule="evenodd" clip-rule="evenodd" d="M0 -107.687H210V197.821H0V-107.687Z" fill="white"/>
</mask>
<g mask="url(#mask46_111_2329)">
<path d="M124.604 82.772C124.604 81.7383 124.793 80.7816 125.172 79.9001C125.551 79.0198 126.069 78.3234 126.727 77.8106C127.384 77.298 128.097 77.0422 128.864 77.0422C129.632 77.0422 130.342 77.2983 130.995 77.8106C131.647 78.3229 132.166 79.0192 132.55 79.9001C132.934 80.781 133.126 81.7383 133.126 82.772V87.8416C133.126 88.0241 133.061 88.1742 132.931 88.2945C132.802 88.4145 132.65 88.4739 132.478 88.4739C132.304 88.4739 132.156 88.4142 132.031 88.2945C131.906 88.1747 131.844 88.0241 131.844 87.8416V83.8066H125.885V87.8416C125.885 88.0241 125.82 88.1742 125.69 88.2945C125.56 88.4147 125.407 88.4739 125.23 88.4739C125.052 88.4739 124.903 88.4142 124.783 88.2945C124.664 88.1747 124.604 88.0241 124.604 87.8416V82.772ZM130.916 79.5487C130.345 78.7297 129.661 78.3205 128.865 78.3205C128.068 78.3205 127.383 78.7297 126.806 79.5487C126.23 80.3672 125.924 81.3651 125.885 82.5428H131.845C131.796 81.3651 131.487 80.3672 130.916 79.5487Z" fill="#0F80A2"/>
</g>
<mask id="mask47_111_2329" style="mask-type:luminance" maskUnits="userSpaceOnUse" x="0" y="-108" width="210" height="306">
<path fill-rule="evenodd" clip-rule="evenodd" d="M0 -107.687H210V197.821H0V-107.687Z" fill="white"/>
</mask>
<g mask="url(#mask47_111_2329)">
<path d="M138.127 77.0709C139 77.0809 139.716 77.3825 140.272 77.9758C140.828 78.5696 141.107 79.2592 141.107 80.0438C141.107 80.848 140.826 81.5446 140.265 82.1341C139.704 82.7228 139.029 83.0166 138.243 83.0166H138.17V83.3615C138.17 83.467 138.199 83.5577 138.257 83.6343L141.006 87.4969C141.082 87.6027 141.121 87.7221 141.121 87.8561C141.121 88.0765 141.03 88.2538 140.848 88.3878C140.741 88.4639 140.622 88.5027 140.488 88.5027C140.267 88.5027 140.094 88.412 139.969 88.2293L137.278 84.4528C137.018 84.127 136.889 83.7541 136.889 83.3324V83.0166H136.429V87.8707C136.429 88.0431 136.364 88.1911 136.234 88.3157C136.105 88.4403 135.951 88.5021 135.773 88.5021C135.596 88.5021 135.447 88.4403 135.327 88.3157C135.207 88.1911 135.147 88.0426 135.147 87.8707V78.7802C135.147 78.3204 135.325 77.9214 135.68 77.5811C136.035 77.2412 136.448 77.0709 136.918 77.0709H138.127ZM136.976 78.3495C136.822 78.3495 136.692 78.4017 136.587 78.5074C136.481 78.6129 136.429 78.742 136.429 78.8951V81.5085C136.429 81.5658 136.45 81.6188 136.494 81.6664C136.536 81.7149 136.582 81.7386 136.631 81.7386H138.128C138.598 81.7386 138.999 81.5733 139.329 81.2429C139.66 80.9128 139.826 80.5133 139.826 80.0438C139.826 79.5751 139.661 79.175 139.329 78.8446C138.998 78.5144 138.598 78.3495 138.128 78.3495H136.976Z" fill="#0F80A2"/>
</g>
<mask id="mask48_111_2329" style="mask-type:luminance" maskUnits="userSpaceOnUse" x="0" y="-108" width="210" height="306">
<path fill-rule="evenodd" clip-rule="evenodd" d="M0 -107.687H210V197.821H0V-107.687Z" fill="white"/>
</mask>
<g mask="url(#mask48_111_2329)">
<path d="M144.885 77.0279H148.685C148.868 77.0279 149.018 77.0882 149.139 77.2074C149.259 77.3268 149.319 77.4753 149.319 77.6527C149.319 77.8297 149.259 77.9804 149.139 78.1049C149.019 78.2295 148.868 78.2914 148.685 78.2914H144.885C144.731 78.2914 144.599 78.3492 144.489 78.4641C144.378 78.5787 144.328 78.7133 144.337 78.8658V82.5277H147.13C147.303 82.5277 147.451 82.588 147.576 82.7074C147.701 82.8269 147.763 82.9757 147.763 83.1522C147.763 83.3298 147.701 83.4807 147.576 83.6048C147.451 83.7293 147.302 83.7915 147.13 83.7915H144.337V86.6491C144.337 86.831 144.392 86.972 144.503 87.0726C144.613 87.1733 144.74 87.2239 144.884 87.2239H148.685C148.867 87.2239 149.018 87.2841 149.138 87.4033C149.258 87.5225 149.319 87.671 149.319 87.8483C149.319 88.0254 149.258 88.1761 149.138 88.3009C149.018 88.4255 148.867 88.4871 148.685 88.4871H144.885C144.385 88.4871 143.956 88.3149 143.596 87.97C143.237 87.6256 143.057 87.2091 143.057 86.7207V78.6783C143.057 78.2379 143.241 77.8528 143.611 77.5224C143.98 77.1931 144.405 77.0279 144.885 77.0279Z" fill="#0F80A2"/>
</g>
<mask id="mask49_111_2329" style="mask-type:luminance" maskUnits="userSpaceOnUse" x="0" y="-108" width="210" height="306">
<path fill-rule="evenodd" clip-rule="evenodd" d="M0 -107.687H210V197.821H0V-107.687Z" fill="white"/>
</mask>
<g mask="url(#mask49_111_2329)">
<path d="M151.758 77.0709H156.45C156.633 77.0709 156.784 77.1312 156.904 77.2509C157.024 77.3704 157.084 77.5189 157.084 77.6959C157.084 77.873 157.022 78.0242 156.897 78.1482C156.772 78.2725 156.624 78.335 156.451 78.335H154.954C154.906 78.335 154.86 78.3589 154.817 78.4068C154.774 78.455 154.752 78.5023 154.752 78.5502V87.8707C154.743 88.0431 154.675 88.1911 154.551 88.3157C154.426 88.4403 154.275 88.5021 154.097 88.5021C153.92 88.5021 153.771 88.4403 153.651 88.3157C153.531 88.1911 153.471 88.0426 153.471 87.8707V78.5502C153.471 78.5023 153.447 78.455 153.399 78.4068C153.351 78.3589 153.303 78.335 153.255 78.335H151.758C151.585 78.335 151.436 78.2725 151.312 78.1482C151.187 78.0242 151.125 77.8735 151.125 77.6959C151.125 77.5189 151.187 77.3704 151.312 77.2509C151.436 77.1309 151.585 77.0709 151.758 77.0709Z" fill="#0F80A2"/>
</g>
<mask id="mask50_111_2329" style="mask-type:luminance" maskUnits="userSpaceOnUse" x="0" y="-108" width="210" height="306">
<path fill-rule="evenodd" clip-rule="evenodd" d="M0 -107.687H210V197.821H0V-107.687Z" fill="white"/>
</mask>
<g mask="url(#mask50_111_2329)">
<path d="M158.977 82.772C158.977 81.7383 159.166 80.7816 159.545 79.9001C159.924 79.0198 160.442 78.3234 161.1 77.8106C161.757 77.2983 162.47 77.0422 163.237 77.0422C164.005 77.0422 164.715 77.2983 165.368 77.8106C166.02 78.3229 166.539 79.0192 166.923 79.9001C167.306 80.781 167.498 81.7383 167.498 82.772V87.8416C167.498 88.0241 167.434 88.1742 167.304 88.2945C167.175 88.4145 167.023 88.4739 166.851 88.4739C166.677 88.4739 166.529 88.4142 166.404 88.2945C166.279 88.1747 166.217 88.0241 166.217 87.8416V83.8066H160.258V87.8416C160.258 88.0241 160.193 88.1742 160.063 88.2945C159.934 88.4145 159.78 88.4739 159.602 88.4739C159.425 88.4739 159.276 88.4142 159.157 88.2945C159.036 88.1747 158.977 88.0241 158.977 87.8416V82.772ZM165.289 79.5487C164.718 78.7297 164.034 78.3205 163.238 78.3205C162.441 78.3205 161.755 78.7297 161.179 79.5487C160.603 80.3672 160.296 81.3651 160.258 82.5428H166.217C166.169 81.3651 165.859 80.3672 165.289 79.5487Z" fill="#0F80A2"/>
</g>
<mask id="mask51_111_2329" style="mask-type:luminance" maskUnits="userSpaceOnUse" x="0" y="-108" width="210" height="306">
<path fill-rule="evenodd" clip-rule="evenodd" d="M0 -107.687H210V197.821H0V-107.687Z" fill="white"/>
</mask>
<g mask="url(#mask51_111_2329)">
<path d="M134.796 39.1362C134.914 39.1362 135.027 39.1141 135.137 39.0703C135.246 39.027 135.33 38.981 135.389 38.9339C135.448 38.8862 135.477 38.848 135.477 38.819C135.477 38.7969 135.438 38.7695 135.361 38.7366C135.285 38.7038 135.208 38.6438 135.131 38.5561C135.054 38.4687 135.016 38.3519 135.016 38.2061C135.016 38.0384 135.071 37.8977 135.18 37.785C135.289 37.672 135.427 37.6155 135.591 37.6155C135.755 37.6155 135.896 37.672 136.013 37.785C136.13 37.898 136.188 38.0384 136.188 38.2061C136.188 38.5852 136.051 38.9099 135.778 39.1801C135.503 39.4496 135.176 39.5844 134.796 39.5844C134.73 39.5844 134.68 39.561 134.647 39.5134C134.615 39.4661 134.598 39.4133 134.598 39.3549C134.598 39.2963 134.615 39.2454 134.647 39.2021C134.681 39.158 134.731 39.1362 134.796 39.1362ZM135.696 38.1079C135.667 38.0791 135.632 38.064 135.591 38.064C135.551 38.064 135.52 38.0791 135.498 38.1079C135.476 38.1369 135.465 38.1697 135.465 38.2061C135.465 38.2935 135.509 38.3371 135.597 38.3371C135.633 38.3371 135.666 38.3247 135.695 38.2986C135.724 38.2733 135.739 38.2424 135.739 38.2055C135.74 38.17 135.725 38.1372 135.696 38.1079Z" fill="#313846" stroke="#313846" stroke-width="0.922971" stroke-miterlimit="10"/>
</g>
<mask id="mask52_111_2329" style="mask-type:luminance" maskUnits="userSpaceOnUse" x="0" y="-108" width="210" height="306">
<path fill-rule="evenodd" clip-rule="evenodd" d="M0 -107.687H210V197.821H0V-107.687Z" fill="white"/>
</mask>
<g mask="url(#mask52_111_2329)">
<path d="M71.9202 8.04028C73.5023 8.04028 74.885 8.48827 76.0712 9.381C77.2568 10.2735 77.8493 11.3373 77.8493 12.5718V85.4718C77.8493 86.7065 77.2765 87.7701 76.1364 88.6628C74.9945 89.5545 73.6121 89.9997 71.986 89.9997C70.36 89.9997 68.9997 89.555 67.9039 88.6628C66.8032 87.7701 66.2563 86.7065 66.2563 85.4718V24.2072C66.2563 24.0022 66.0597 23.8822 65.6637 23.8483C65.2697 23.8141 64.983 23.8994 64.808 24.1047L55.324 43.6676C54.9718 44.2832 54.7973 44.6968 54.7973 44.9023C53.6554 47.5117 51.6116 49.6736 48.6716 51.3901C45.7295 53.107 42.4148 53.9623 38.7262 53.9623C35.0375 53.9623 31.7234 53.107 28.781 51.3901C25.8388 49.6736 23.8412 47.4778 22.7888 44.7996L12.6446 24.2072C12.5572 24.0022 12.3817 23.8994 12.1174 23.8994C11.8544 23.8994 11.7239 24.0022 11.7239 24.2072V85.472C11.7239 86.7067 11.1311 87.7703 9.94519 88.6631C8.75959 89.5547 7.35257 90 5.72952 90C4.10377 90 2.74287 89.5553 1.64735 88.6631C0.546706 87.7703 -0.000244141 86.7067 -0.000244141 85.472V12.572C-0.000244141 11.3373 0.546706 10.2737 1.64735 9.38127C2.74314 8.48853 4.12535 8.04055 5.79506 8.04055C9.306 8.04055 12.4259 8.77939 15.1474 10.2568C17.8684 11.731 19.8904 13.6701 21.207 16.0744L33.0625 40.3709L34.117 42.4335C34.9922 44.0134 36.53 44.7998 38.7264 44.7998C40.921 44.7998 42.4588 44.0441 43.3359 42.536L56.3769 16.0744C57.6065 13.6698 59.6254 11.7307 62.4365 10.2568C65.246 8.77912 68.4071 8.04028 71.9202 8.04028Z" fill="#00698C"/>
</g>
<mask id="mask53_111_2329" style="mask-type:luminance" maskUnits="userSpaceOnUse" x="0" y="-108" width="210" height="306">
<path fill-rule="evenodd" clip-rule="evenodd" d="M0 -107.687H210V197.821H0V-107.687Z" fill="white"/>
</mask>
<g mask="url(#mask53_111_2329)">
<path d="M38.923 13.9431C42.7285 13.9431 45.8147 10.821 45.8147 6.97103C45.8147 3.12296 42.7288 0 38.923 0C35.12 0 32.0344 3.12269 32.0344 6.97103C32.0344 10.8213 35.1203 13.9431 38.923 13.9431Z" fill="#6E7D8F"/>
</g>
<mask id="mask54_111_2329" style="mask-type:luminance" maskUnits="userSpaceOnUse" x="0" y="-108" width="210" height="306">
<path fill-rule="evenodd" clip-rule="evenodd" d="M0 -107.687H210V197.821H0V-107.687Z" fill="white"/>
</mask>
<g mask="url(#mask54_111_2329)">
<path d="M37.0384 16.9095C35.8239 16.9095 34.6062 18.8761 34.3325 21.2793L26.8713 85.1688C26.6981 87.5815 28.2001 88.4476 30.2085 87.0923C30.2085 87.0923 34.8891 83.9355 37.9281 83.9747C40.962 84.0135 44.8365 86.9387 44.8365 86.9387C46.7697 88.3986 48.2929 87.6146 48.2212 85.1968L44.2841 21.2995C44.1404 18.8847 42.948 16.9095 41.6346 16.9095H37.0384Z" fill="#6E7D8F"/>
</g>
</g>
<defs>
<clipPath id="clip0_111_2329">
<rect width="210" height="90" fill="white"/>
</clipPath>
</defs>
</svg>
