<svg width="171" height="85" viewBox="0 0 171 85" fill="none" xmlns="http://www.w3.org/2000/svg">
<g clip-path="url(#clip0_111_5599)">
<path d="M29.1514 0L28.6982 0.213944C16.1297 6.16088 6.77967 15.1396 2.53858 28.6571C-1.70251 42.1745 -0.852049 60.1788 6.77986 84.2275L7.02534 85L7.58808 84.4169C36.0799 54.8781 40.4142 26.3106 29.3478 0.461967L29.1514 0ZM28.6396 1.36129C39.2134 26.5568 35.017 54.164 7.47478 83.0745C0.146349 59.5983 -0.643072 42.0265 3.4601 28.9487C7.55982 15.8818 16.4994 7.22492 28.6396 1.36129Z" fill="#4E7B38"/>
<path d="M55.277 32.1805V42.2719H59.9412C61.0113 42.2719 61.7918 42.0384 62.2828 41.5713C62.7864 41.0917 63.12 40.1514 63.2836 38.7503H63.9823V47.4406H63.2836C63.2711 46.4434 63.1389 45.7114 62.8871 45.2444C62.6479 44.7773 62.308 44.4302 61.8674 44.203C61.4393 43.9632 60.7973 43.8433 59.9412 43.8433H55.277V51.9088C55.277 53.2089 55.3588 54.0672 55.5224 54.4837C55.6483 54.7992 55.9127 55.0706 56.3156 55.2978C56.8695 55.6007 57.4486 55.7522 58.0529 55.7522H58.9782V56.4527H47.9879V55.7522H48.8943C49.9518 55.7522 50.7197 55.443 51.1981 54.8245C51.5002 54.4206 51.6513 53.4487 51.6513 51.9088V35.3234C51.6513 34.0234 51.5695 33.1651 51.4058 32.7485C51.2799 32.433 51.0218 32.1616 50.6316 31.9344C50.0902 31.6315 49.5111 31.48 48.8943 31.48H47.9879V30.7795H67.0415L67.287 36.4215H66.6261C66.2987 35.2225 65.9148 34.3452 65.4742 33.7898C65.0461 33.2219 64.5111 32.8116 63.869 32.5592C63.2396 32.3068 62.2576 32.1805 60.9232 32.1805H55.277ZM76.1723 32.1805V42.3287H81.7996C83.26 42.3287 84.2356 42.1078 84.7266 41.666C85.3812 41.0854 85.7463 40.063 85.8219 38.5988H86.5206V47.5353H85.8219C85.6456 46.2857 85.4694 45.4842 85.2931 45.1308C85.0665 44.689 84.6951 44.3419 84.179 44.0894C83.6628 43.837 82.8697 43.7108 81.7996 43.7108H76.1723V52.1739C76.1723 53.3098 76.2227 54.0041 76.3234 54.2565C76.4241 54.4963 76.6003 54.692 76.8521 54.8434C77.1039 54.9823 77.5823 55.0517 78.2873 55.0517H82.6305C84.0783 55.0517 85.1295 54.9507 85.7841 54.7488C86.4387 54.5468 87.0682 54.1492 87.6725 53.556C88.453 52.7734 89.2524 51.5932 90.0707 50.0155H90.826L88.6166 56.4527H68.8832V55.7522H69.7896C70.3939 55.7522 70.9667 55.6071 71.508 55.3167C71.9109 55.1148 72.1815 54.8119 72.32 54.408C72.4711 54.0041 72.5466 53.1773 72.5466 51.9277V35.2477C72.5466 33.6195 72.383 32.616 72.0557 32.2373C71.6024 31.7325 70.8471 31.48 69.7896 31.48H68.8832V30.7795H88.6166L88.8999 36.4026H88.1634C87.8991 35.0521 87.6032 34.1243 87.2759 33.6195C86.9612 33.1146 86.4891 32.7296 85.8596 32.4645C85.3561 32.2752 84.4685 32.1805 83.197 32.1805H76.1723ZM114.214 30.1926L114.799 38.9207H114.214C113.434 36.3079 112.319 34.4273 110.872 33.2787C109.424 32.13 107.687 31.5557 105.66 31.5557C103.96 31.5557 102.424 31.9912 101.052 32.8621C99.6799 33.7204 98.5972 35.0962 97.8041 36.9895C97.0236 38.8828 96.6333 41.2369 96.6333 44.0516C96.6333 46.374 97.0047 48.3872 97.7474 50.0912C98.4902 51.7952 99.6043 53.1016 101.09 54.0104C102.588 54.9191 104.294 55.3735 106.207 55.3735C107.869 55.3735 109.336 55.0201 110.607 54.3133C111.879 53.5938 113.276 52.1739 114.799 50.0534L115.385 50.432C114.101 52.7166 112.603 54.389 110.89 55.4493C109.178 56.5095 107.145 57.0397 104.791 57.0397C100.549 57.0397 97.2628 55.4619 94.9338 52.3064C93.1965 49.9587 92.3278 47.1945 92.3278 44.0137C92.3278 41.4514 92.9006 39.0974 94.0462 36.9517C95.1919 34.8059 96.7655 33.1461 98.7672 31.9723C100.781 30.7858 102.978 30.1926 105.358 30.1926C107.208 30.1926 109.034 30.647 110.834 31.5557C111.363 31.8334 111.74 31.9723 111.967 31.9723C112.307 31.9723 112.603 31.8524 112.854 31.6125C113.182 31.2718 113.415 30.7984 113.553 30.1926H114.214ZM127.877 55.7522V56.4527H116.905V55.7522H117.812C118.869 55.7522 119.637 55.443 120.116 54.8245C120.418 54.4206 120.569 53.4487 120.569 51.9088V35.3234C120.569 34.0234 120.487 33.1651 120.323 32.7485C120.198 32.433 119.939 32.1616 119.549 31.9344C118.995 31.6315 118.416 31.48 117.812 31.48H116.905V30.7795H127.877V31.48H126.952C125.907 31.48 125.145 31.7893 124.667 32.4077C124.352 32.8116 124.195 33.7835 124.195 35.3234V51.9088C124.195 53.2089 124.276 54.0672 124.44 54.4837C124.566 54.7992 124.83 55.0706 125.233 55.2978C125.775 55.6007 126.347 55.7522 126.952 55.7522H127.877ZM128.699 56.4527V55.7522H129.662C130.745 55.7522 131.513 55.4051 131.966 54.7109C132.243 54.2944 132.381 53.3603 132.381 51.9088V35.3234C132.381 33.7204 132.205 32.717 131.852 32.3131C131.361 31.7577 130.631 31.48 129.662 31.48H128.699V30.7795H139.123C142.95 30.7795 145.858 31.215 147.847 32.0859C149.849 32.9568 151.454 34.4083 152.662 36.4405C153.883 38.4726 154.494 40.8203 154.494 43.4836C154.494 47.0556 153.411 50.0407 151.246 52.4389C148.816 55.1148 145.115 56.4527 140.142 56.4527H128.699ZM136.007 54.5973C137.606 54.9507 138.946 55.1274 140.029 55.1274C142.95 55.1274 145.373 54.0987 147.299 52.0413C149.225 49.9839 150.189 47.1945 150.189 43.6729C150.189 40.1261 149.225 37.3303 147.299 35.2856C145.373 33.2408 142.899 32.2184 139.878 32.2184C138.745 32.2184 137.455 32.4014 136.007 32.7675V54.5973Z" fill="#4E7B38"/>
<path d="M104.205 66.4527C92.6359 64.5246 81.7054 63.5079 71.0723 63.8582C48.0682 64.623 31.6534 70.9933 31.6534 70.9933C31.6534 70.9933 48.3731 65.5261 71.1029 65.3486C71.1029 65.3486 71.1029 65.3486 71.1029 65.3486C81.6524 65.2631 92.3574 66.4477 103.888 68.3652C107.643 68.9904 111.383 69.6746 115.161 70.3711C129.872 73.0868 142.055 74.686 153.48 75.2176C164 75.7071 171 75.1131 171 75.1131C171 75.1131 163.976 75.2214 153.547 74.2522C141.747 73.1555 130.649 71.2521 115.51 68.4643C111.732 67.7676 107.975 67.0804 104.205 66.4527Z" fill="#4E7B38"/>
<path d="M18.0874 11.0077C13.0937 15.4116 9.47792 20.353 7.03857 25.8266C13.0103 30.257 14.4746 36.6567 14.6581 37.5765C16.2271 32.0082 18.057 26.6767 20.1665 21.3717C20.2291 20.2861 20.2773 16.2027 18.0874 11.0077Z" fill="#93CEC3"/>
<path d="M28.1014 3.78094C25.6894 8.63522 23.5192 13.3278 21.5545 18.0054C21.3763 17.4342 20.1094 13.5435 17.4794 9.6502C20.2935 15.4839 20.2345 20.193 20.1665 21.3717C18.057 26.6767 16.2271 32.0082 14.6581 37.5765C14.4629 36.5985 12.8221 29.4225 5.85078 25.0087C12.3766 30.377 13.5826 39.7425 13.7215 41.0412C12.8427 44.4537 12.059 47.9682 11.3648 51.6305C11.045 50.8007 8.52292 44.7625 1.92297 42.4991C8.30732 45.5455 10.5053 53.8322 10.7738 54.9381C9.93329 59.864 9.24847 65.0746 8.70977 70.662C8.45134 69.5973 7.26708 65.6803 3.2826 62.7234C7.13229 66.2213 8.24127 71.7732 8.47562 73.2483C8.27284 75.5905 8.08769 77.9817 7.93365 80.4655C8.2639 78.6055 8.57004 76.9677 8.88917 75.2078C9.80652 72.6226 13.652 63.5493 23.7072 59.27C14.6434 61.9319 10.4921 69.2001 9.70494 70.7283C10.3323 67.3468 10.9542 64.0824 11.5669 61.0099C12.9655 58.6321 19.1849 48.9957 30.324 44.8506C20.0877 47.4767 12.9816 56.5487 12.2826 57.4676C13.3638 52.2289 14.4633 47.3495 15.6401 42.6221C16.54 41.0784 21.883 32.554 31.8045 29.6435C22.9626 31.3393 17.4089 37.7599 16.6504 38.6803C17.2219 36.5106 17.8138 34.3541 18.4368 32.1976C19.4364 30.4312 25.1599 20.7326 31.8045 18.1928C25.1758 19.9761 20.7385 26.0897 19.8776 27.3564C22.137 20.0252 24.7871 12.4531 28.1014 3.78094Z" fill="#4E7B38"/>
<path d="M27.9844 4.01947C27.9263 4.0525 27.8722 4.08671 27.8144 4.11982C24.1788 6.20145 21.0079 8.45268 18.2498 10.8638C20.3534 14.3181 21.3949 17.4937 21.5545 18.0053C23.3299 13.7783 25.2837 9.5323 27.4216 5.17249C27.6104 4.78755 27.7925 4.40637 27.9844 4.01947Z" fill="#4BBCBA"/>
<path d="M6.95359 26.0065C5.67336 28.9159 4.7197 31.9738 4.05872 35.1776C3.54375 37.6737 3.21161 40.2618 3.03711 42.9345C8.80754 45.4525 11.0638 50.8493 11.3648 51.6305C12.059 47.9682 12.8427 44.4536 13.7215 41.0412C13.5909 39.8196 12.5122 31.4625 6.95359 26.0065Z" fill="#4BBCBA"/>
<path d="M3.02768 43.1068C2.63013 49.4561 3.14765 56.3004 4.36464 63.617C7.48177 66.4214 8.47661 69.7014 8.70978 70.662C9.24847 65.0746 9.9333 59.864 10.7738 54.9381C10.5215 53.8987 8.56219 46.5203 3.02768 43.1068Z" fill="#9EDBF6"/>
<path d="M4.41184 63.9029C5.26802 68.9827 6.45598 74.2888 7.91476 79.818C7.93169 79.8822 7.94875 79.945 7.96575 80.0093C7.983 79.7389 8.00254 79.4767 8.02051 79.2084C8.15662 77.1762 8.30764 75.1884 8.47561 73.2483C8.26615 71.9298 7.35109 67.3574 4.41184 63.9029Z" fill="#27C0ED" fill-opacity="0.996078"/>
<path d="M25.4672 58.7777C24.9502 58.8657 23.7072 59.27 23.7072 59.27C13.6521 63.5493 9.80652 72.6226 8.88917 75.2078C8.59062 76.8542 8.30216 78.412 7.99597 80.1266C8.02274 80.2276 8.04645 80.3266 8.0734 80.4277L8.47751 81.9896C8.47886 81.9898 8.47993 81.9895 8.48128 81.9896C15.8024 74.1475 21.402 66.4032 25.4672 58.7777Z" fill="#94C94C"/>
<path d="M31.3324 44.6044L30.324 44.8506C19.1849 48.9956 12.9655 58.6321 11.5669 61.0099C10.9542 64.0824 10.3323 67.3468 9.70493 70.7283C10.4921 69.2001 14.6434 61.9319 23.7072 59.27C23.7072 59.27 24.9501 58.8657 25.4671 58.7777C28.0116 54.0048 29.954 49.2784 31.3324 44.6044Z" fill="#ECD88F"/>
<path d="M33.9063 29.316C33.1876 29.3525 31.8045 29.6435 31.8045 29.6435C21.883 32.554 16.54 41.0784 15.6401 42.6221C14.4633 47.3495 13.3638 52.229 12.2826 57.4676C12.9816 56.5487 20.0878 47.4767 30.324 44.8506L31.3324 44.6044C32.8548 39.4425 33.6979 34.3433 33.9063 29.316Z" fill="#C4CE2E"/>
<path d="M33.2869 17.7781L31.8045 18.1928C25.1599 20.7325 19.4364 30.4311 18.4368 32.1976C17.8138 34.354 17.2219 36.5106 16.6504 38.6802C17.4089 37.7599 22.9626 31.3393 31.8045 29.6435C31.8045 29.6435 33.1876 29.3525 33.9063 29.3159C34.0675 25.4262 33.8519 21.5795 33.2869 17.7781Z" fill="#DADF51"/>
<path d="M29.3931 3.24133L28.1732 3.90778C28.1206 3.93746 28.0726 3.96891 28.0202 3.99866C24.7459 12.5773 22.1175 20.0884 19.8776 27.3564C20.7385 26.0896 25.1759 19.9761 31.8045 18.1928L33.2869 17.7781C32.5549 12.8535 31.2438 8.00449 29.3931 3.24133Z" fill="#BC982F"/>
</g>
<defs>
<clipPath id="clip0_111_5599">
<rect width="171" height="85" fill="white"/>
</clipPath>
</defs>
</svg>
